<?xml version="1.0" encoding="UTF-8" standalone="no"?>
<!-- Created with Inkscape (http://www.inkscape.org/) -->

<svg
   xmlns:dc="http://purl.org/dc/elements/1.1/"
   xmlns:cc="http://creativecommons.org/ns#"
   xmlns:rdf="http://www.w3.org/1999/02/22-rdf-syntax-ns#"
   xmlns:svg="http://www.w3.org/2000/svg"
   xmlns="http://www.w3.org/2000/svg"
   xmlns:sodipodi="http://sodipodi.sourceforge.net/DTD/sodipodi-0.dtd"
   xmlns:inkscape="http://www.inkscape.org/namespaces/inkscape"
   width="16px"
   height="16px"
   id="svg180369"
   version="1.1"
   inkscape:version="0.48.4 r9939"
   sodipodi:docname="bp.png">
  <defs
     id="defs180371" />
  <sodipodi:namedview
     id="base"
     pagecolor="#ffffff"
     bordercolor="#666666"
     borderopacity="1.0"
     inkscape:pageopacity="0.0"
     inkscape:pageshadow="2"
     inkscape:zoom="43.247565"
     inkscape:cx="-0.44915535"
     inkscape:cy="8.2644827"
     inkscape:current-layer="layer1"
     showgrid="true"
     inkscape:grid-bbox="true"
     inkscape:document-units="px"
     inkscape:window-width="1600"
     inkscape:window-height="1137"
     inkscape:window-x="-8"
     inkscape:window-y="32"
     inkscape:window-maximized="1" />
  <metadata
     id="metadata180374">
    <rdf:RDF>
      <cc:Work
         rdf:about="">
        <dc:format>image/svg+xml</dc:format>
        <dc:type
           rdf:resource="http://purl.org/dc/dcmitype/StillImage" />
        <dc:title></dc:title>
      </cc:Work>
    </rdf:RDF>
  </metadata>
  <g
     id="layer1"
     inkscape:label="Layer 1"
     inkscape:groupmode="layer">
    <path
       style="fill:#003cd8;fill-opacity:1;stroke:#003cd8;stroke-width:2"
       id="path180377"
       d="m -5.4106902,-5.4640746 c 0.2503814,0.063492 0.4963642,0.143428 0.7369134,0.2371828 0.170958,0.075192 0.3303688,0.170208 0.4792268,0.2828086 0.162962,0.102402 0.3144802,0.220895 0.4727314,0.329898 0.14592,0.074762 0.274418,0.178082 0.4131856,0.2645308 0.140018,0.111306 0.2908208,0.2086058 0.42912,0.3218854 0.121144,0.103624 0.2550804,0.19156 0.3789884,0.2914338 0.12954,0.082436 0.2342186,0.193156 0.3360232,0.3067426 0.138006,0.151872 0.2779146,0.3019378 0.4085448,0.4601658 0.119324,0.138404 0.218443,0.2930054 0.3418978,0.4276976 0.129312,0.124098 0.228472,0.2747124 0.3435214,0.4110206 0.11522003,0.155592 0.23756563,0.3051456 0.35181483,0.4614416 0.119888,0.12751 0.2177028,0.2731824 0.3167962,0.4169272 0.095348,0.16322 0.2012058,0.31971201 0.2939206,0.48450521 0.101156,0.176962 0.196094,0.3576938 0.285676,0.5408068 0.096936,0.173648 0.162636,0.361784 0.2434766,0.542924 0.094702,0.19355 0.162076,0.3976336 0.2320306,0.6010046 0.087208,0.18485399 0.133242,0.38201899 0.183724,0.57855979 0.04254,0.18347 0.104688,0.3612826 0.147366,0.5446644 0.056566,0.178798 0.097896,0.3603196 0.12128997,0.5462858 0.038172,0.15456 0.073402,0.3085256 0.092124,0.4668142 0.03762,0.148898 0.07149,0.2973376 0.089736,0.4500198 0.01708,0.17627 0.01782,0.353556 0.0189,0.5304836 -0.01342,0.183576 -0.051774,0.3638736 -0.071214,0.5469412 -0.030004,0.180718 -0.069934,0.358916 -0.090602,0.5411688 -0.030634,0.180398 -0.070018,0.3584668 -0.090424,0.5405318 -0.02597,0.156808 -0.068732,0.3091878 -0.089202,0.467117 -0.024928,0.181772 -0.077258,0.357542 -0.12717,0.5335072 -0.046326,0.18047 -0.093922,0.3603438 -0.13853,0.5412528 -0.044354,0.181226 -0.107114,0.3571402 -0.15256,0.5379768 -0.04607,0.183202 -0.10388,0.3629788 -0.158304,0.543752 -0.056834,0.181298 -0.120276,0.360457 -0.178056,0.541436 -0.054108,0.169538 -0.113186,0.3368664 -0.177808,0.50259 -0.063476,0.164808 -0.136118,0.3256858 -0.2021726,0.4894506 -0.07052,0.148636 -0.130854,0.3016774 -0.18842,0.4556774 -0.074464,0.154196 -0.141188,0.312076 -0.2161158,0.465999 -0.090358,0.171244 -0.16505,0.350202 -0.245842,0.526067 -0.084568,0.182442 -0.173708,0.362704 -0.2629488,0.542889 -0.093118,0.177242 -0.165754,0.363472 -0.256386,0.5419 -0.084138,0.1658 -0.144022,0.342004 -0.2192428,0.511582 -0.05724,0.14012 -0.121912,0.276812 -0.183314,0.415182 -0.081626,0.15348 -0.127252,0.320768 -0.18885,0.482186 -0.04276,0.14112 -0.096744,0.2788 -0.138642,0.420152 -0.047698,0.16872 -0.103308,0.33503 -0.15485,0.502578 -0.048172,0.17624 -0.093912,0.35282 -0.138474,0.529964 -0.049824,0.15538 -0.094154,0.312434 -0.139104,0.469286 -0.04228,0.17948 -0.09031,0.357754 -0.146794,0.533302 -0.050958,0.18024 -0.098074,0.361546 -0.150904,0.541326 -0.057374,0.17696 -0.10392,0.35725 -0.152648,0.536766 -0.059978,0.17866 -0.103466,0.361922 -0.156312,0.542652 -0.043802,0.16524 -0.072178,0.332972 -0.118216,0.497718 -0.032482,0.16424 -0.075552,0.326166 -0.109208,0.490158 -0.01964,0.15992 -0.073136,0.312034 -0.102732,0.469938 -0.025184,0.17226 -0.023708,0.345878 -0.051606,0.517796 -0.113602,0.638556 0.4238456,-0.03836 -1.151252,0.772736 0.11111,-0.1138 0.154608,-0.276524 0.2064686,-0.423274 0.059242,-0.13996 0.102652,-0.285392 0.155286,-0.42786 0.054138,-0.15004 0.110848,-0.29872 0.171198,-0.446308 0.059804,-0.1504 0.118178,-0.301038 0.18002,-0.45058 0.06023,-0.15026 0.118508,-0.300978 0.180326,-0.450568 0.060144,-0.13886 0.127026,-0.274612 0.181456,-0.416054 0.058432,-0.1496 0.125024,-0.295894 0.180604,-0.44669 0.051068,-0.14124 0.113856,-0.277602 0.177284,-0.413544 0.048882,-0.13342 0.101228,-0.264572 0.142098,-0.40076 0.062166,-0.13186 0.081268,-0.27663 0.123814,-0.414596 0.042076,-0.14178 0.068706,-0.286452 0.111126,-0.428252 0.027054,-0.14612 0.071352,-0.287504 0.107916,-0.431272 0.01886,-0.15194 0.058214,-0.298966 0.092318,-0.447824 0.049712,-0.16388 0.084294,-0.330594 0.11867,-0.498112 0.049488,-0.14588 0.067828,-0.299328 0.111018,-0.44664 0.032404,-0.1409 0.084432,-0.275564 0.124854,-0.414002 0.04823,-0.13478 0.084926,-0.274152 0.135886,-0.407958 0.046816,-0.13192 0.10755,-0.256788 0.15157,-0.38978 0.047594,-0.13008 0.107642,-0.254446 0.161832,-0.381724 0.072752,-0.1317 0.128662,-0.271539 0.181994,-0.411918 0.0557,-0.137324 0.121812,-0.269767 0.1802,-0.405865 0.059214,-0.144588 0.119586,-0.28864 0.178764,-0.433315 0.0654,-0.123638 0.108638,-0.256833 0.15969,-0.386704 0.041576,-0.137198 0.092586,-0.270491 0.132812,-0.408143 C -0.953,10.271158 -0.888218,10.148243 -0.841504,10.018128 -0.78738,9.8869362 -0.750472,9.749413 -0.699508,9.6171548 -0.657902,9.4819028 -0.60574,9.349911 -0.565202,9.2143374 -0.516486,9.0796814 -0.480054,8.9402308 -0.42921,8.8063486 -0.387972,8.6709066 -0.335622,8.5389466 -0.295,8.4033402 -0.24049,8.2459182 -0.209094,8.0818342 -0.157228,7.9237878 -0.10338,7.7623198 -0.047918,7.601288 0.010504,7.4413906 0.072032,7.2689006 0.126086,7.0947488 0.175456,6.9185048 0.224464,6.7756748 0.26494,6.6308598 0.315894,6.488716 0.365164,6.332188 0.408234,6.1743734 0.449112,6.0155242 0.506404,5.8727662 0.526602,5.7199046 0.570856,5.5735408 0.61266,5.4179648 0.661612,5.264145 0.698318,5.1072338 0.747698,4.9326398 0.79191,4.7581672 0.815312,4.5780692 0.846422,4.4195352 0.881762,4.2619622 0.913424,4.1033874 0.96220003,3.9390134 0.97833003,3.7677908 1.02257,3.6025644 1.07173,3.4543784 1.079594,3.2978336 1.11728,3.1471714 1.156036,2.9898674 1.18691,2.8310954 1.224768,2.6734836 1.253414,2.4945996 1.297736,2.318976 1.332652,2.141331 1.351552,1.979861 1.405414,1.8262858 1.435252,1.6669978 1.473758,1.5181798 1.511436,1.369985 1.543196,1.2194016 1.593288,1.0556916 1.60926,0.88472361 1.653378,0.71979901 c 0.038776,-0.146866 0.066222,-0.295184 0.10962,-0.4408756 0.027036,-0.14596 0.071432,-0.2871432 0.10804,-0.4307304 0.043534,-0.171098 0.099732,-0.3385152 0.151476,-0.5071952 0.03851,-0.15785 0.092158,-0.3110086 0.136692,-0.46719141 0.042968,-0.136836 0.104974,-0.2655406 0.160022,-0.3975422 0.071366,-0.165888 0.147826,-0.3295294 0.229297,-0.490682 0.073018,-0.13409 0.149576,-0.2666022 0.2153998,-0.4044286 0.069382,-0.131166 0.149532,-0.2558764 0.2254752,-0.383092 0.059456,-0.124866 0.148822,-0.2308976 0.21676,-0.3505086 0.07991,-0.123748 0.156148,-0.2494358 0.2384412,-0.3716226 0.079572,-0.111406 0.17703,-0.2071842 0.2675596,-0.3091358 0.088192,-0.11548 0.178042,-0.229451 0.2689168,-0.3428644 0.0852,-0.098916 0.180266,-0.188348 0.268431,-0.2844042 0.089916,-0.09008 0.183546,-0.176754 0.2701988,-0.2700614 0.090276,-0.089732 0.18373,-0.176664 0.2703214,-0.2700574 0.090222,-0.089858 0.183688,-0.176844 0.2703,-0.2702856 0.4287102,-0.363035 1.0185044,-0.6406574 1.459933,-0.8981695 -0.3639994,0.2099508 -0.7271344,0.421407 -1.0919978,0.6298523 -0.01918,0.01096 0.035622,-0.026314 0.054792,-0.0373 0.4028164,-0.2308579 0.8040638,-0.464587 1.2109854,-0.6881293 0.021542,-0.011834 0.04886,-0.00788 0.071842,-0.016592 0.042348,-0.016044 0.08049,-0.041793 0.122396,-0.058958 0.153554,-0.048895 0.3159928,-0.053368 0.4757066,-0.058529 0.184056,-0.016974 0.3619272,0.034627 0.5428232,0.060223 0.185008,0.015326 0.3698726,0.049647 0.5463392,0.1079416 0.181388,0.048685 0.3547504,0.1187282 0.5389562,0.1571418 0.181786,0.05127 0.3595194,0.1154856 0.5421542,0.1635994 0.177526,0.071893 0.363682,0.1267412 0.5358292,0.2106034 0.1556,0.05726 0.302301,0.129476 0.44868,0.206368 0.165056,0.066724 0.311883,0.169624 0.469976,0.2507804 0.167102,0.082198 0.318846,0.190686 0.481955,0.2798714 0.170986,0.100886 0.324023,0.2278926 0.485014,0.3431264 0.118148,0.09163 0.218987,0.2022652 0.33195,0.2993422 0.108626,0.10432 0.215823,0.2106736 0.325245,0.314423 0.11318,0.12976 0.231286,0.254117 0.345146,0.3834842 0.14196,0.156866 0.264994,0.3298392 0.384814,0.5038736 0.12068,0.16867 0.249576,0.3307054 0.37442,0.4962362 0.11984,0.151686 0.243032,0.3002076 0.361096,0.4532896 0.09722,0.145772 0.205994,0.283568 0.303494,0.429252 0.10592,0.13241 0.201382,0.27275 0.296862,0.4126928 0.1048,0.1497 0.19304,0.3106426 0.275604,0.47348485 0.09466,0.173322 0.1719,0.3564318 0.235752,0.5432106 0.05748,0.180702 0.07106,0.3699224 0.07894,0.5580946 0.0235,0.183444 0.05822,0.3646192 0.07362,0.5491518 0.02584,0.22253415 0.0088,0.44261195 -0.0194,0.66360875 -0.0194,0.2019332 -0.04512,0.4016516 -0.08426,0.6006786 -0.02692,0.169488 -0.04696,0.338212 -0.08836,0.5049524 -0.02872,0.150064 -0.08172,0.293988 -0.13712,0.4359544 -0.06976,0.169416 -0.14494,0.337083 -0.235898,0.4962568 -0.08992,0.141996 -0.1611,0.2940702 -0.241228,0.4415464 -0.0687,0.140024 -0.15972,0.2651948 -0.252466,0.3896228 -0.109,0.14458 -0.21868,0.2878426 -0.332818,0.4283934 -0.11474,0.1472 -0.23688,0.2877564 -0.357742,0.4298596 -0.12954,0.130472 -0.257506,0.2623352 -0.387426,0.392433 -0.11316,0.128496 -0.236792,0.2456654 -0.363568,0.3604428 -0.13008,0.108692 -0.257624,0.2203348 -0.386804,0.3300332 -0.125007,0.1169733 -0.256486,0.2276177 -0.390062,0.3347161 -0.124832,0.1045628 -0.245066,0.2138444 -0.378843,0.307077 -0.477147,0.3623162 -1.02682,0.6334592 -1.539784,0.9293382 0.361684,-0.2078228 0.722819,-0.4166036 1.085052,-0.6234682 0.04164,-0.023779 -0.04449,0.029863 -0.126188,0.077029 -0.404853,0.2337384 -0.812379,0.4628942 -1.214879,0.7006612 -0.3577744,0.2113464 0.719513,-0.415923 1.080693,-0.6213944 0.02202,-0.012525 -0.04202,0.028303 -0.06302,0.042454 C 7.6209072,9.3056774 10.822485,7.464189 10.781213,7.490345 10.388612,7.7391246 9.9731624,7.9500438 9.574815,8.1895098 9.2184596,8.4037324 11.016079,7.3595462 10.655216,7.5660858 10.249522,7.7982844 9.8444042,8.0314984 9.4403202,8.2664878 9.084196,8.473587 10.15433,7.8553344 10.511336,7.6497576 10.103124,7.8826882 9.694882,8.1155662 9.2867002,8.3485496 8.1812968,8.979495 12.837462,6.3215858 8.8945454,8.5601522 c 2.8492006,-1.6364808 -0.084284,0.053826 -0.1278,0.078404 -0.09149,0.051674 -0.19882,0.081804 -0.2927584,0.13106 -0.16106,0.05753 -0.3061652,0.142122 -0.4737236,0.181072 -0.082206,0.06166 -0.185588,0.064204 -0.2782162,0.09526 -0.043734,0.01466 -0.083372,0.03968 -0.126338,0.056462 -0.143524,0.02964 -0.2697524,0.095634 -0.4144004,0.123312 -0.100916,0.054322 -0.2178542,0.056638 -0.325116,0.087348 -0.05008,0.01434 -0.096612,0.039074 -0.145692,0.056526 -0.163342,0.030698 -0.3218846,0.077008 -0.4845954,0.11107 -0.182096,0.01938 -0.3556286,0.075298 -0.5364464,0.10365 -0.184066,0.01016 -0.359755,0.064074 -0.5416444,0.091 -0.119648,0.026188 -0.2452554,0.00798 -0.3653318,0.02499 -0.050778,0.0072 -0.099026,0.026734 -0.148646,0.039698 -0.159818,0.038422 -0.3245446,0.045066 -0.4881082,0.050374 -0.17435,0.04562 -0.3527144,0.068454 -0.5320322,0.081972 -0.160126,0.01574 -0.3131066,0.066298 -0.4744766,0.084642 -0.173126,0.01556 -0.347128,0.01592 -0.5208068,0.01678 -0.180148,3.332e-4 -0.3602974,-1.764e-4 -0.540446,-4.19e-4 -0.180302,-2.276e-4 -0.3606036,-2.718e-4 -0.5409054,-3.014e-4 -0.180206,-1.98e-5 -0.3604108,-1.46e-5 -0.54061617,-1.26e-5 -0.180196,2.2e-6 -0.3603938,3.2e-6 -0.5405906,3.8e-6 -0.170864,-0.02023 -0.3279232,0.01828 -0.492725,0.05217 -0.04618,0.014 -0.057844,0.02751 -0.103798,0.0051 -0.040812,-0.01988 -0.109786,-0.138136 -0.085558,-0.154678 0.9737118,-0.6648522 0.7768326,-0.6383938 1.30353397,-0.681011 0.173398,0.00206 0.3394298,-0.047626 0.5104392,-0.071046 0.169772,-0.037008 0.3328412,0.0117 0.4999728,0.036372 0.165988,0.021376 0.3335526,0.024164 0.500659,0.026608 0.17931,0.00171 0.3586302,0.0012 0.537945,0.00101 0.17861,0.00766 0.3604184,-0.01904 0.5361772,0.01728 0.153228,0.041852 0.310857,0.057076 0.4688344,0.065994 0.1807,-0.00544 0.3545846,0.044622 0.5324116,0.069554 0.183994,0.00846 0.360073,0.061786 0.5415532,0.089372 0.16797,0.00354 0.3244358,0.06289 0.488486,0.091336 0.148076,0.028504 0.2883286,0.079572 0.4394096,0.099384 0.171438,0.02631 0.338943,0.070436 0.5123626,0.090054 0.148104,0.063066 0.3126606,0.064384 0.4625002,0.116392 0.152052,0.039298 0.3006822,0.089276 0.4534734,0.126208 0.161194,0.031548 0.3141624,0.097032 0.4684194,0.1527 0.154088,0.04964 0.3010184,0.120194 0.4523736,0.178644 0.14834,0.0475 0.2885918,0.116456 0.4284862,0.184276 0.126298,0.05224 0.2457618,0.119168 0.3674888,0.181664 0.129088,0.04723 0.239666,0.132602 0.349238,0.214119 0.125384,0.0777 0.2466158,0.166642 0.3517584,0.270568 0.1107296,0.08035 0.1883756,0.188564 0.2713256,0.294571 0.07992,0.10566 0.152396,0.215432 0.221172,0.328934 0.08205,0.130132 0.162192,0.259738 0.233662,0.396104 0.07869,0.156842 0.144398,0.319057 0.218937,0.477755 0.06644,0.13216 0.116018,0.270664 0.172526,0.406966 0.06929,0.14472 0.09357,0.30192 0.108628,0.45994 0.03145,0.17618 0.06475,0.351382 0.08312,0.529578 0.0049,0.16116 -0.03347,0.31931 -0.05155,0.478858 -0.0076,0.17816 -0.02492,0.353478 -0.0562,0.529006 -0.02876,0.17842 -0.0693,0.35615 -0.131246,0.5261 -0.05638,0.16722 -0.12785,0.328482 -0.201928,0.488434 -0.0818,0.17808 -0.176244,0.35013 -0.254941,0.529594 -0.05455,0.14932 -0.146102,0.279308 -0.219167,0.419136 -0.06266,0.14056 -0.147426,0.2671 -0.236223,0.391838 -0.09431,0.1383 -0.190072,0.275452 -0.2939568,0.406794 -0.10301,0.1379 -0.2141278,0.269026 -0.3251688,0.40035 -0.087966,0.09916 -0.185004,0.18954 -0.2748038,0.286848 -0.09755,0.09566 -0.1925,0.19284 -0.2960978,0.282222 -0.13323,0.11042 -0.2685016,0.218268 -0.4142968,0.311736 -2.6463074,1.529434 -0.7004816,0.403562 -0.15352,0.09208 0.04921,-0.02802 -0.094312,0.06284 -0.14323,0.09136 -0.4055356,0.236528 -0.8185224,0.460576 -1.2179422,0.707294 -0.3517256,0.217256 0.7165332,-0.412586 1.0747998,-0.618878 -0.4954092,0.34321 -1.0278362,0.622384 -1.5507608,0.923846 0.3616624,-0.20779 0.7227682,-0.416552 1.0849868,-0.62337 0.020636,-0.0118 -0.039522,0.02646 -0.060172,0.03822 -0.404287,0.230136 -0.8020796,0.47231 -1.214565,0.687406 -0.371452,0.1937 1.4499724,-0.83976 1.0913848,-0.623172 -0.3971796,0.2399 -0.8029242,0.465368 -1.207192,0.69312 -0.3630002,0.204502 0.722256,-0.41558 1.083384,-0.62337 -0.5157034,0.34979 -1.045786,0.624466 -1.5970404,0.884398 -0.154306,0.0575 -0.3047774,0.11968 -0.4554182,0.18526 -0.147014,0.0759 -0.3210842,0.09494 -0.4683206,0.16132 -0.094842,0.05258 -0.2056434,0.04752 -0.3068904,0.07354 -0.046496,0.012 -0.089478,0.03492 -0.134982,0.0502 -0.098828,0.03922 -0.208401,0.0267 -0.3100286,0.04732 -0.04737,0.0096 -0.091596,0.03096 -0.137876,0.04492 -0.159992,0.03068 -0.3183978,0.04938 -0.4769776,0.08666 -0.17788,0.03942 -0.3600606,0.04896 -0.5415496,0.05504 -0.151364,0.04924 -0.3077546,0.07086 -0.4657824,0.08298 -0.170204,0.05282 -0.346666,0.07542 -0.5236516,0.08928 -0.182978,-0.003 -0.3583042,0.0485 -0.538473,0.07354 -0.172416,-0.0011 -0.3320752,0.04332 -0.49825417,0.07938 -0.163696,0.037 -0.3335842,0.017 -0.4962532,0.05436 -0.177256,0.04256 -0.3588012,0.05822 -0.5403336,0.06758 -0.181136,0.0072 -0.3624554,0.0066 -0.543698,0.0066 -0.180266,-2.12e-4 -0.36053143,-4.92e-4 -0.54079723,-6.38e-4 -0.180186,-1.24e-4 -0.3603724,-1.36e-4 -0.5405586,-1.44e-4 -0.169264,0.0178 -0.3289392,-0.03668 -0.493883,-0.06318 -0.154502,-0.0198 -0.3006954,-0.083 -0.4468262,-0.13514 -0.148876,-0.04456 -0.2889028,-0.1139 -0.4283186,-0.1817 -0.132404,-0.0464 -0.2453884,-0.13296 -0.3570364,-0.216092 -0.128912,-0.06758 -0.2258234,-0.17998 -0.3541014,-0.247596 -0.108884,-0.08338 -0.2373154,-0.12936 -0.3448106,-0.21515 -0.133694,-0.07566 -0.190348,-0.1972 -0.199014,-0.34495 0.00392,-0.13766 0.07146,-0.255056 0.15784,-0.357938 0.082626,-0.09872 0.17189,-0.19314 0.2668398,-0.280262 0.092756,-0.09554 0.190436,-0.18516 0.2761366,-0.287398 0.092402,-0.1142 0.167118,-0.239922 0.243385,-0.365072 0.079496,-0.13616 0.145774,-0.279388 0.2217174,-0.417768 0.067458,-0.13626 0.125418,-0.277378 0.196126,-0.411948 0.072018,-0.13782 0.119772,-0.286116 0.182968,-0.42771 0.056638,-0.13796 0.120434,-0.272582 0.180976,-0.40891 0.055596,-0.14468 0.117294,-0.285744 0.16501,-0.433294 0.046348,-0.13268 0.106714,-0.25905 0.161432,-0.388238 0.059342,-0.1208 0.123106,-0.23945 0.178554,-0.36212 0.061732,-0.11914 0.125098,-0.237722 0.18039,-0.360058 0.06167,-0.11924 0.124964,-0.237934 0.180236,-0.360348 0.061628,-0.11928 0.124924,-0.237974 0.180198,-0.360398 0.067478,-0.1316 0.14737,-0.255868 0.2229032,-0.382704 0.059542,-0.1251 0.149064,-0.231342 0.217155,-0.351154 0.080702,-0.1258 0.15925,-0.25268 0.24138183,-0.377546 0.086878,-0.12568 0.16259,-0.258014 0.243419,-0.387388 0.0752,-0.11102 0.146722,-0.22405 0.2180706,-0.337746 0.0819,-0.09882 0.156278,-0.201546 0.2312138,-0.305468 0.071916,-0.10724 0.154334,-0.208436 0.2459472,-0.299512 0.098812,-0.10724 0.176832,-0.230862 0.271315,-0.341674 0.08564,-0.10776 0.185188,-0.20266 0.2724818,-0.309073 0.08396,-0.115312 0.169248,-0.230419 0.267154,-0.334358 0.086606,-0.09561 0.174248,-0.191258 0.26895937,-0.279015 0.1011,-0.10462 0.178706,-0.228291 0.27289,-0.338749 0.098512,-0.106608 0.183322,-0.22371 0.271851,-0.338453 0.095444,-0.115586 0.18073,-0.238745 0.2706018,-0.358594 0.090826,-0.126858 0.17064,-0.261057 0.2689342,-0.38244 0.094416,-0.1249764 0.185658,-0.2524122 0.273788,-0.3819224 0.075244,-0.127602 0.175698,-0.2371242 0.2526338,-0.3633072 0.076946,-0.10599 0.146754,-0.215952 0.2196286,-0.3245648 C 2.963907,8.9308536 3.044075,8.8122454 3.128644,8.6973776 3.219346,8.5635256 3.310962,8.4303508 3.4003106,8.2955744 3.4791066,8.1629264 3.5783526,8.0447862 3.669613,7.9209256 3.766503,7.7763256 3.8732284,7.6389104 3.9806426,7.502061 4.0805166,7.366797 4.1943226,7.2429762 4.297016,7.1100184 4.381164,6.9915264 4.467374,6.8736968 4.5669778,6.7676444 4.6709778,6.6567944 4.7714496,6.5432014 4.864029,6.422364 4.9537982,6.3030298 5.056463,6.1946926 5.1536778,6.081642 5.261308,5.9745984 5.3508942,5.8528984 5.4498498,5.7381586 5.544527,5.620273 5.6462216,5.5084744 5.7453606,5.394356 5.8774662,5.2581834 6.0027644,5.1155696 6.133134,4.9776598 6.2944818,4.8153898 6.4501996,4.6482062 6.6031294,4.47805 6.703821,4.3667968 6.801497,4.2521672 6.909368,4.147766 7.0133156,4.0407126 7.1226828,3.9387014 7.2316116,3.836488 7.350466,3.7051056 7.4904428,3.5960606 7.6250536,3.4818494 7.7643192,3.3730866 7.9050928,3.2663768 8.0455466,3.159194 8.1548506,3.0734822 8.251067,2.9733546 8.3548732,2.8816106 8.4601332,2.8095386 8.5658848,2.7372172 8.6596584,2.6504106 8.7938068,2.5390094 8.9296812,2.4296126 9.0628042,2.3170092 9.1813532,2.221385 9.2894218,2.1143622 9.4075648,2.018281 9.5358956,1.928677 9.6504634,1.8211934 9.7701768,1.7207184 9.8947258,1.5984546 10.03563,1.4952318 10.176499,1.392959 c 0.158319,-0.1203774 0.315674,-0.2419058 0.473412,-0.363024 0.137195,-0.0966966 0.264252,-0.20634439 0.396513,-0.30923119 0.110433,-0.070951 0.22014,-0.1442348 0.317002,-0.2331392 0.111304,-0.094997 0.235675,-0.1724612 0.346888,-0.2674644 0.107074,-0.0989886 0.225252,-0.18377 0.340012,-0.2733572 0.458186,-0.3635754 0.96818,-0.5970134 1.490722,-0.89513 -1.192696,0.682559 -1.790138,1.0258788 0.11304,-0.069376 0.364456,-0.2097414 -0.727426,0.42207902 -1.093014,0.62984242 -0.019,0.01076 0.03392,-0.02765 0.05272,-0.038648 0.40056,-0.2341752 0.808364,-0.4560496 1.205076,-0.69668722 0.359254,-0.2179162 -0.72845,0.41900402 -1.092674,0.62850602 0.426262,-0.2820248 0.375302,-0.2501154 1.26653,-0.72391602 0.370718,-0.197084 -1.451406,0.84456342 -1.093646,0.62483042 0.395092,-0.2426626 0.801634,-0.46623422 1.205696,-0.69365062 0.21916,-0.12335 -0.0759,0.079068 0.11986,-0.060396 0.1325,-0.073516 0.285842,-0.102136 0.417598,-0.174898 0.067,-0.04455 0.14974,-0.045928 0.222748,-0.071622 0.06896,-0.024272 0.12942,-0.05893 0.201116,-0.079272 0.0251,-0.0049 0.05106,-0.00658 0.0753,-0.0147 0.02174,-0.00728 0.04092,-0.020728 0.06138,-0.031092 0.02168,-0.00846 0.04294,-0.01808 0.06502,-0.025406 0.07204,-0.02391 0.13726,-0.029942 0.205524,-0.064576 0.06346,-0.039062 0.1412,-0.036264 0.209192,-0.05896 0.06688,-0.022328 0.12618,-0.056432 0.1956,-0.07571 0.16352,-0.038052 0.322332,-0.09507 0.482262,-0.146954 0.15926,-0.056378 0.308882,-0.119926 0.478066,-0.145578 0.15774,-0.022102 0.29622,-0.0926 0.459014,-0.075542 0.17078,0.01758 0.336278,0.037412 0.500768,0.085886 0.1479,0.02424 0.280504,0.091546 0.426886,0.122354 0.1373,0.063224 0.2839,0.099318 0.427762,0.144196 0.17642,0.049052 0.349212,0.110638 0.522888,0.169076 0.166,0.032642 0.319122,0.103418 0.484662,0.137682 0.137,0.044292 0.261982,0.115152 0.397362,0.162316 0.11986,0.061132 0.236004,0.132966 0.362474,0.17987 0.12536,0.06901 0.242416,0.143222 0.328632,0.259143 0.08846,0.097314 0.1548,0.20964582 0.229122,0.31711542 0.07188,0.114724 0.124,0.2404202 0.19036,0.3580396 0.07564,0.13344 0.11968,0.2812824 0.182,0.4205382 0.07084,0.139112 0.0959,0.2934198 0.14444,0.4404006 0.04262,0.15819 0.0758,0.3188148 0.11276,0.4785742 0.03702,0.18064598 0.08914,0.35689778 0.11902,0.53911738 0.04408,0.17982 0.08172,0.360089 0.10276,0.5441174 0.0174,0.18165 0.0186,0.3642976 0.0198,0.5466176 4.54e-4,0.180308 -1.02e-4,0.3606152 -3.62e-4,0.5409226 -0.0017,0.175944 0.0094,0.3518728 -0.0192,0.526082 -0.02862,0.162522 -0.061,0.323561 -0.09944,0.484034 -0.05536,0.177926 -0.09862,0.35918 -0.15088,0.5379834 -0.0504,0.182878 -0.1065,0.364389 -0.16818,0.5437978 -0.04886,0.15522 -0.10342,0.310027 -0.17472,0.45651 -0.06524,0.151224 -0.13724,0.2996462 -0.1996,0.4520732 -0.06016,0.14543 -0.12344,0.28935 -0.19672,0.4286608 -0.08742,0.154764 -0.16844,0.3129972 -0.252348,0.4696668 -0.0819,0.144054 -0.1742,0.2817474 -0.260326,0.423115 -0.0612,0.12484 -0.1511,0.2313824 -0.219506,0.3516624 -0.0652,0.113978 -0.15136,0.211792 -0.234622,0.3122784 -0.08644,0.094058 -0.18036,0.180744 -0.267198,0.2743658 -0.09036,0.08972 -0.18396,0.176534 -0.270656,0.269892 -0.09562,0.10668 -0.210722,0.189764 -0.322342,0.2781814 -0.1153,0.09613 -0.239362,0.180696 -0.358974,0.2711942 -0.468038,0.3344598 -0.982996,0.5856588 -1.478976,0.8811408 -0.358316,0.213468 0.723264,-0.4156016 1.084896,-0.6234024 -0.0652,0.041408 -0.05766,0.03755 -0.12634,0.07721 -4.049276,2.3383194 0.74335,-0.4220808 -0.1973,0.121878 -0.403728,0.2334678 -0.809192,0.4639174 -1.213788,0.6958764 -0.14756,0.06512 -0.292452,0.141062 -0.446442,0.190596 -0.07582,0.06959 -0.17646,0.07529 -0.267142,0.108446 -0.04308,0.01576 -0.08198,0.04139 -0.12446,0.05866 -0.15476,0.05336 -0.307792,0.111772 -0.463094,0.165028 -0.17394,0.04905 -0.341576,0.113024 -0.507734,0.182708 -0.1635,0.04658 -0.321664,0.103946 -0.4897,0.133958 -0.14258,0.07929 -0.307842,0.0794 -0.459256,0.127306 -0.1725,0.0521 -0.352182,0.06725 -0.53117,0.07678 -0.15096,0.05219 -0.30787,0.07369 -0.466292,0.08588 -0.1663,-0.01126 -0.319384,0.02942 -0.479652,0.06255 -0.165216,0.02908 -0.333356,0.03276 -0.500645,0.03608 -0.179452,0.0023 -0.358925,0.0017 -0.538386,0.0014 -0.15885,0.0049 -0.311912,0.05495 -0.470983,0.07273 -0.17301,0.01556 -0.346883,0.01628 -0.520451,0.01732 -0.180255,5.11e-4 -0.360416,2.8e-5 -0.5405764,-1.96e-4 -0.1800096,-0.03767 -0.361251,-0.06485 -0.5445478,-0.07917 -0.17883,-0.0113 -0.3581044,-0.01146 -0.5372146,-0.01194 -0.180104,-9.1e-5 -0.3602094,2.93e-4 -0.540314,4.81e-4 -0.178474,-0.0077 -0.3601554,0.0189 -0.53577,-0.01744 -0.1532,-0.04189 -0.3108114,-0.0571 -0.4687688,-0.06602 -0.1807,0.0054 -0.3545864,-0.04462 -0.532414,-0.06955 -0.1760308,-0.03 -0.3572016,-0.0062 -0.5310916,-0.04476 C 6.0737122,11.353774 5.9161162,11.339205 5.758341,11.330541 5.5936708,11.340889 5.43887,11.286375 5.2782784,11.260569 5.114122,11.231751 4.9455046,11.253627 4.7834352,11.216528 4.6299316,11.167646 4.4672008,11.171995 4.3124936,11.132627 4.1432082,11.077942 3.9619382,11.088122 3.792069,11.041738 3.642922,10.985717 3.4804928,10.995868 3.3299894,10.950877 3.1769966,10.909495 3.0225038,10.884374 2.86916,10.844363 2.7011808,10.823768 2.5422894,10.775145 2.3787952,10.734782 2.2272382,10.71971 2.088689,10.658536 1.939584,10.630562 1.7932538,10.600221 1.6543538,10.550205 1.5045424,10.530643 1.353167,10.508305 1.208806,10.459149 1.0555438,10.440247 c -0.15201457,-0.0214 -0.29692417,-0.07095 -0.45064057,-0.08996 -0.1519792,-0.02146 -0.2968372,-0.07105 -0.4505276,-0.09009 -0.167598,-0.0085 -0.3293266,-0.01412 -0.4925582,-0.05349 0,0 1.0997076,-0.7643476 1.0997076,-0.7643476 l 0,0 c 0.161224,0.029318 0.32604577,0.01932 0.48770737,0.04743 0.151028,0.027156 0.297252,0.075648 0.4505122,0.090066 0.151064,0.027128 0.2973398,0.07556 0.4506328,0.089952 0.150966,0.027132 0.2970134,0.07547 0.4499596,0.091568 0.148414,0.028964 0.2903236,0.080664 0.439577,0.105642 0.14732,0.03699 0.29193,0.082902 0.4419768,0.108702 0.161472,0.04464 0.3251528,0.073058 0.4885644,0.1095236 0.15298,0.03759 0.3095254,0.05864 0.4608978,0.103452 0.154532,0.02452 0.3093218,0.04585 0.4600904,0.08963 0.17349,0.02656 0.3480942,0.04593 0.5186204,0.08963 0.15709,0.02237 0.3139722,0.04386 0.468904,0.079 0.165556,0.01358 0.332751,0.0129 0.4963248,0.04587 0.156266,0.03067 0.310666,0.0621 0.4711236,0.05916 0.160216,0.01436 0.3178202,0.04144 0.4750798,0.07505 0.17645,0.01458 0.354405,0.01418 0.529346,0.04524 0.175102,0.02877 0.3490092,0.06075 0.5273042,0.06047 0.159688,0.01446 0.3167048,0.04206 0.4740494,0.07232 0.1744,0.0092 0.3492874,0.0011 0.523862,0.0036 0.180288,-2.08e-4 0.3605798,-6.92e-4 0.5408672,2.82e-4 0.1814862,0.0017 0.3632442,0.004 0.5440342,0.02154 0.179696,0.01978 0.356927,0.0583 0.53734,0.06907 0.179874,2e-4 0.359758,7.51e-4 0.539624,-0.0013 0.170856,-0.0029 0.34229,-0.0065 0.511615,-0.03179 0.159566,-0.02656 0.317196,-0.06947 0.480648,-0.05683 0.17874,2.6e-5 0.357538,5.23e-4 0.536212,-0.0052 0.16382,-0.0071 0.32798,-0.01818 0.48812,-0.05596 0.16114,-0.03419 0.323212,-0.03796 0.48706,-0.05103 0.15744,-0.02104 0.310014,-0.06497 0.46781,-0.08175 0.17544,-0.01636 0.34845,-0.04584 0.517618,-0.09632 0.15712,-0.03146 0.307968,-0.07931 0.461746,-0.123066 0.16128,-0.04164 0.320586,-0.09363 0.475964,-0.153386 0.16678,-0.06785 0.34124,-0.11558 0.510578,-0.176692 0.154,-0.0573 0.30996,-0.109254 0.461816,-0.172228 0.1309,-0.054862 0.265926,-0.098998 0.392928,-0.163396 0.14694,-0.065242 0.29666,-0.124154 0.4375,-0.2023136 -0.35985,0.2090222 -0.719528,0.418342 -1.07955,0.6270666 -0.02176,0.01262 0.04304,-0.026 0.06474,-0.03873 0.40257,-0.236178 0.813694,-0.458306 1.208036,-0.707979 0.350224,-0.22174 -0.716198,0.4175812 -1.075594,0.624125 -0.04256,0.02446 0.15752,-0.1046164 0.1261,-0.076046 0.40242,-0.2338536 0.803088,-0.4707492 1.20726,-0.7015608 0.360898,-0.206099 -0.717908,0.4189358 -1.077434,0.6274204 -0.02234,0.01296 0.0449,-0.025728 0.06586,-0.040818 0.269806,-0.19424 -0.14758,0.086368 0.1354,-0.090702 0.02282,-0.01428 0.04356,-0.03163 0.06534,-0.047444 0.12572,-0.079816 0.250058,-0.168188 0.359424,-0.2694052 0.235686,-0.151174 -0.11474,0.078336 0.11854,-0.09081 0.07284,-0.05281 0.15888,-0.091434 0.208366,-0.171504 0.1005,-0.077872 0.18132,-0.18036 0.270618,-0.2699772 0.10026,-0.077332 0.18152,-0.179156 0.269166,-0.269514 0.0975,-0.078208 0.1777,-0.184104 0.245278,-0.2880112 0.0845,-0.10592 0.13862,-0.2347268 0.22717,-0.3393004 0.06982,-0.153468 0.1812,-0.2814158 0.258546,-0.4315026 0.10036,-0.144946 0.16478,-0.3125734 0.251972,-0.465633 0.0822,-0.131404 0.13748,-0.271893 0.207924,-0.4093698 0.05316,-0.15907 0.1339,-0.3054112 0.1914,-0.4625924 0.06956,-0.144032 0.14268,-0.2878626 0.18516,-0.4430504 0.05988,-0.178498 0.12296,-0.3562326 0.17046,-0.5384042 0.05142,-0.176936 0.0911,-0.3566312 0.15352,-0.5302716 0.03438,-0.160304 0.0783,-0.316949 0.09942,-0.479921 0.03928,-0.166724 0.03682,-0.332596 0.0327,-0.5037928 2.32e-4,-0.180088 6.94e-4,-0.3601738 7e-4,-0.540261 C 20.657636,3.0219788 20.657722,2.843414 20.64446,2.665466 20.62746,2.4829946 20.59484,2.3035372 20.54478,2.127013 20.51932,1.946781 20.46794,1.773942 20.4298,1.5965838 20.39508,1.4406398 20.3556,1.2862804 20.32106,1.1304996 20.27366,0.98753761 20.24934,0.83845841 20.18416,0.70178981 c -0.06134,-0.13541 -0.1046,-0.2790978 -0.17786,-0.4093296 -0.064,-0.11462 -0.1156,-0.2361558 -0.18478,-0.3480078 -0.07118,-0.106314 -0.14002,-0.213456 -0.225006,-0.3099534 -0.07608,-0.092786 -0.18498,-0.149778 -0.291496,-0.2015894 -0.12088,-0.057172 -0.238454,-0.121238 -0.360182,-0.17668 -0.12676,-0.054404 -0.252442,-0.112064 -0.38606,-0.14845 -0.16426,-0.04574 -0.324206,-0.105858 -0.489304,-0.14896801 -0.17274,-0.059578 -0.34731,-0.113966 -0.5226,-0.165466 -0.1418,-0.044992 -0.285024,-0.084772 -0.42445,-0.1368 -0.143,-0.041106 -0.281516,-0.096176 -0.42814,-0.124834 -0.15608,-0.038834 -0.318516,-0.050794 -0.478918,-0.055316 -0.14976,0.023838 -0.292736,0.076946 -0.443734,0.095356 -0.15958,0.041662 -0.307938,0.113488 -0.467104,0.156972 -0.16032,0.053946 -0.323588,0.098622 -0.485116,0.14864 -0.13276,0.05035 -0.269468,0.086428 -0.401308,0.13954801 -0.13924,0.03669 -0.271212,0.093178 -0.40989,0.131656 -0.1383,0.05423 -0.280988,0.095634 -0.414924,0.160778 -0.1417,0.050902 -0.281388,0.109478 -0.411582,0.185554 -0.0411,0.01792 -0.15962,0.08164 -0.12084,0.05914 0.362846,-0.2104654 1.460264,-0.82589101 1.089426,-0.62985421 -4.105062,2.170065 0.82462,-0.2958378 -0.17518,0.092844 -4.003858,2.3343222 0.741016,-0.43685 -0.16742,0.100834 -0.39872,0.2359904 -0.818134,0.4397906 -1.197194,0.7062134 -0.03638,0.025568 3.140858,-1.821173 -0.11726,0.063578 2.181616,-1.2658198 1.14825,-0.73185 0.802962,-0.4326222 -0.12074,0.077528 -0.242026,0.16391 -0.341526,0.2675612 -0.11882,0.08398 -0.222558,0.187462 -0.347216,0.2639984 -0.10786,0.0784 -0.19634,0.180438 -0.312078,0.2497332 -0.152812,0.07404 -0.258016,0.2127642 -0.40569,0.2966544 -0.154578,0.1266 -0.31718,0.2415176 -0.47249,0.3666872 -0.135743,0.104771 -0.279033,0.1977102 -0.408612,0.3105386 -0.107094,0.1181488 -0.242208,0.2049818 -0.354929,0.3181632 -0.133097,0.07667 -0.238617,0.187149 -0.349264,0.2916334 C 10.164565,1.9218552 10.038177,2.0400708 9.9036986,2.149217 9.7991398,2.2250322 9.7137168,2.3238712 9.6037084,2.3934206 9.4750562,2.453591 9.4010416,2.575211 9.2856772,2.6551216 9.1592832,2.7808 9.0031914,2.8700666 8.8671484,2.9851336 8.725507,3.0864714 8.5969152,3.2044648 8.466198,3.3198454 8.3725198,3.4345526 8.2564364,3.5311812 8.145481,3.6282828 8.0517942,3.7464012 7.9320496,3.8428014 7.832857,3.956956 7.6883804,4.1364604 7.5240612,4.298891 7.3636602,4.464355 7.2332024,4.6006314 7.1034848,4.7377798 6.9828882,4.8829816 6.8678728,4.9784696 6.7893784,5.1086612 6.680092,5.210213 6.635932,5.273607 6.578978,5.322409 6.534252,5.384381 6.488748,5.447429 6.458888,5.517881 6.386556,5.558113 6.2914714,5.6749248 6.185312,5.7790946 6.0956536,5.899829 5.9933364,6.010403 5.9189476,6.1481624 5.8012592,6.244231 5.7141576,6.358649 5.6052168,6.4549624 5.5235106,6.5746726 5.435791,6.7213716 5.3158642,6.8421362 5.2066534,6.9723128 5.109544,7.1137172 4.9949558,7.2435492 4.8954198,7.3829374 4.8184322,7.5171208 4.7136192,7.6289658 4.6235462,7.7536146 4.5452712,7.8971832 4.4424454,8.0237352 4.356498,8.1621098 4.2808954,8.2805312 4.1997866,8.3987354 4.1078714,8.5048102 4.0429598,8.6214268 3.9675726,8.728911 3.8912682,8.8373082 3.799317,8.950936 3.735631,9.086578 3.6330618,9.1938262 3.5563276,9.3335444 3.4552342,9.4559914 3.3662558,9.5872132 3.2765518,9.7138912 3.1706638,9.828085 3.0945958,9.9649996 3.0136478,10.09026 2.9261838,10.215279 2.8246036,10.324615 c -0.078878,0.120918 -0.164456,0.24378 -0.268743,0.343833 -0.085282,0.119116 -0.188216,0.224488 -0.267703,0.348343 -0.07972,0.100774 -0.182172,0.18235 -0.2716304,0.273982 -0.085398,0.112324 -0.19213,0.206852 -0.273503,0.323214 -0.071176,0.120886 -0.167114,0.220958 -0.268624,0.315732 -0.085392,0.11898 -0.188462,0.224131 -0.267338,0.348396 -0.07736,0.10014 -0.17653,0.18082 -0.25403297,0.28125 -0.065618,0.11388 -0.141952,0.21731 -0.2261004,0.316908 -0.094704,0.0951 -0.132076,0.226132 -0.226375,0.321482 -0.074676,0.13608 -0.159998,0.26427 -0.2412224,0.396118 -0.085616,0.12244 -0.166442,0.245704 -0.2394324,0.376044 -0.083886,0.1052 -0.137566,0.233012 -0.2250794,0.33709 -0.059898,0.13706 -0.156978,0.250432 -0.2195816,0.386586 -0.0758,0.11008 -0.11545,0.243502 -0.180196,0.3604 -0.0758,0.11008 -0.115448,0.2435 -0.180216,0.360388 -0.0758,0.11002 -0.11548,0.243356 -0.180348,0.360132 -0.075824,0.10972 -0.11572003,0.242808 -0.17969603,0.359748 -0.075978,0.11324 -0.114598,0.250816 -0.168308,0.375446 -0.034876,0.07068 -0.04627,0.14282 -0.074504,0.216116 -0.00922,0.02394 -0.020704,0.04698 -0.031056,0.07046 -0.01176,0.02196 -0.025956,0.04278 -0.035276,0.06588 -0.01078,0.02674 -0.0165,0.05526 -0.024746,0.08288 -0.05432,0.14026 -0.12196,0.273682 -0.178994,0.411504 -0.06317,0.1436 -0.122028,0.287518 -0.17902,0.43394 -0.067788,0.13692 -0.1415,0.270736 -0.197854,0.412948 -0.069122,0.14478 -0.157462,0.278682 -0.2158206,0.428464 -0.081376,0.12382 -0.143158,0.259274 -0.24073,0.3708 -0.069436,0.11786 -0.16223,0.21793 -0.267219,0.30366 -0.079648,0.09956 -0.181742,0.1799 -0.271132,0.270056 -0.067716,0.09186 -0.157162,0.16438 -0.195408,0.276048 -0.00854,0.13196 0.020746,0.16414 0.13638,0.236834 0.110074,0.07252 0.2309288,0.1267 0.337323,0.205108 0.122826,0.08152 0.2319616,0.18238 0.3597658,0.25708 0.109582,0.07578 0.2194062,0.15024 0.3452326,0.19732 0.134732,0.06712 0.2751946,0.12358 0.4183268,0.17008 0.141206,0.05074 0.285037,0.09748 0.4345124,0.11602 0.158948,0.03028 0.31564683,0.05944 0.47875843,0.04538 0.180208,2.4e-5 0.3604166,5.8e-5 0.5406248,2.36e-4 0.180188,1.92e-4 0.360377,5.94e-4 0.5405652,3.32e-4 0.179548,-7e-4 0.3592822,-0.0013 0.5384868,-0.0138 0.17952397,-0.0152 0.35678817,-0.04332 0.53373057,-0.07702 0.164852,-0.0144 0.331256,-0.02082 0.492324,-0.06262 0.165706,-0.0384 0.333587,-0.04782 0.5018608,-0.07076 0.180282,-0.03058 0.3595662,-0.06232 0.5429038,-0.06794 0.17662,-0.02158 0.3488216,-0.06332 0.5243908,-0.0904 0.157498,-0.02064 0.3107908,-0.06394 0.4691526,-0.07622 0.177768,-0.011 0.3549272,-0.03016 0.5281026,-0.07366 0.158006,-0.03326 0.3204702,-0.04352 0.4751118,-0.09298 0.14741,-0.03576 0.3017026,-0.04096 0.4445372,-0.09682 0.145572,-0.04362 0.298167,-0.0632 0.437912,-0.12694 0.158954,-0.04372 0.3119538,-0.10246 0.462856,-0.1688 0.149188,-0.06606 0.306049,-0.11468 0.4517378,-0.18926 0.4646798,-0.234862 1.3354024,-0.655794 -0.6987806,0.433008 0.4034798,-0.233244 0.807605,-0.465376 1.2104394,-0.699734 0.362093,-0.210654 -1.4595772,0.822476 -1.0882154,0.628628 0.4115406,-0.214822 0.7966734,-0.478 1.2088506,-0.691598 0.3709708,-0.19224 -0.7237974,0.417646 -1.0851132,0.627474 -0.020382,0.0118 0.04152,-0.02232 0.062282,-0.03348 0.4024202,-0.233826 0.8048402,-0.46765 1.2072602,-0.701474 -1.9808082,1.15305 -1.1681764,0.696186 -0.7381198,0.405288 2.3691882,-1.395762 0.9071726,-0.531274 0.142364,-0.09224 -0.04912,0.0282 0.094662,-0.0623 0.14355,-0.0909 0.4052572,-0.23704 0.8150946,-0.466418 1.2157638,-0.711134 0.3494844,-0.213454 -0.7081178,0.411552 -1.0621766,0.617328 0.14431,-0.0929 0.2869612,-0.18508 0.4200698,-0.293014 0.10214,-0.09 0.2099406,-0.17172 0.2947874,-0.277736 0.104028,-0.08042 0.187812,-0.18688 0.2788322,-0.281054 0.128434,-0.11234 0.229662,-0.256394 0.3333354,-0.39101 0.107156,-0.1258 0.2076898,-0.25849 0.2937204,-0.398714 0.089968,-0.11928 0.186478,-0.235832 0.2439312,-0.374754 0.075538,-0.1372 0.150928,-0.270784 0.2281836,-0.406974 0.068522,-0.18668 0.169812,-0.357358 0.250525,-0.538692 0.080014,-0.15298 0.149318,-0.312806 0.2049458,-0.47605 0.06461,-0.16272 0.119926,-0.329462 0.14363,-0.503972 0.030148,-0.1729 0.063692,-0.342456 0.059436,-0.51922 0.01294,-0.1536 0.03748,-0.304902 0.06441,-0.45655 -0.01526,-0.17884 -0.04376,-0.355336 -0.08475,-0.530168 -0.01064,-0.1446 -0.026484,-0.28945 -0.090516,-0.421844 -0.057348,-0.13406 -0.101962,-0.273316 -0.16856,-0.403712 C 9.6872022,13.134185 9.622814,12.974141 9.5439964,12.819959 9.4721998,12.686937 9.3952902,12.558021 9.31205,12.431773 9.2454054,12.322687 9.175675,12.216989 9.0980864,12.115454 9.0210706,12.013464 8.9396044,11.918265 8.8381824,11.838593 8.7323936,11.74323 8.6171756,11.659001 8.4966682,11.58314 8.388313,11.508206 8.27985,11.434328 8.156683,11.385015 8.037514,11.320647 7.914651,11.262986 7.7917706,11.206146 7.6556064,11.138254 7.5138508,11.081318 7.3709144,11.0294 7.2218386,10.968407 7.0734496,10.904902 6.9206466,10.853899 c -0.150811,-0.05579 -0.303571,-0.108433 -0.4609604,-0.142358 -0.152292,-0.04251 -0.3050096,-0.08302 -0.456747,-0.127449 -0.1504966,-0.03177 -0.299694,-0.06735 -0.4493846,-0.1021 -0.1729842,-0.02658 -0.3423526,-0.0709 -0.5161714,-0.09221 -0.148924,-0.02902 -0.291551,-0.08109 -0.441941,-0.102943 -0.1607998,-0.03552 -0.3197116,-0.0759 -0.4845446,-0.08944 -0.1797006,-0.03307 -0.3579858,-0.07193 -0.5404368,-0.08763 -0.175102,-0.02877 -0.3490062,-0.06075 -0.5273,-0.06046 -0.159698,-0.01446 -0.3167266,-0.04205 -0.47409,-0.07226 -0.174552,-0.0092 -0.3495872,-9.392e-4 -0.5243128,-0.0035 -0.179976,6.72e-5 -0.3599746,4.73e-4 -0.5399218,-0.00324 -0.171272,-0.00482 -0.342876,-0.01214 -0.51225557,-0.039918 -0.159444,-0.02553 -0.3142574,-0.043164 -0.4743122,-0.00454 -0.170868,0.029178 -0.3407048,0.059558 -0.5139898,0.070484 -0.5041874,0.09607 0.2066452,-0.03091 1.01765217,-0.6334162 0.034916,-0.025938 -0.048204,-0.072414 -0.072306,-0.108622 -8.14e-4,-0.00512 -0.00598,-0.01156 -0.00244,-0.01534 0.01234,-0.01318 0.07907,-0.021482 0.083444,-0.022298 0.167856,-0.033334 0.3360192,-0.033784 0.5068588,-0.029434 0.180196,-10e-7 0.3603936,-2.8e-6 0.5405904,-4e-6 0.18021,0 0.360422,-3.2e-6 0.540633,4.2e-5 0.180326,5.92e-5 0.3606538,1.602e-4 0.5409804,4.274e-4 0.179888,2.388e-4 0.359784,8.522e-4 0.5396662,-9.632e-4 0.170772,-0.00274 0.3422308,-0.0058 0.511357,-0.032054 C 4.3696106,9.126391 4.5252522,9.079569 4.6878544,9.076433 4.8676324,9.056023 5.0440874,9.016005 5.2240734,8.998899 5.3844634,8.988439 5.5438498,8.969771 5.699919,8.929719 5.870579,8.899087 6.0456402,8.906377 6.2160748,8.871759 6.3959608,8.837971 6.5747762,8.800913 6.7567326,8.779481 6.9344866,8.743191 7.1109522,8.701625 7.2897002,8.670355 7.4492002,8.630129 7.6115692,8.600911 7.7673476,8.547475 7.9246756,8.496263 8.0883086,8.464975 8.2453078,8.411937 8.3812158,8.368995 8.5145856,8.318815 8.650249,8.275271 8.785175,8.223831 8.9257938,8.186661 9.060011,8.132787 9.216163,8.074967 9.3665202,8.001379 9.519394,7.935589 9.59508,7.901809 9.671888,7.868555 9.746022,7.831453 9.767426,7.820733 9.829676,7.784903 9.808974,7.796915 8.8126606,8.3750858 7.8183078,8.9450528 9.940485,7.7253732 6.3629906,9.7966158 12.798896,6.0788272 9.2626962,8.1294828 9.669303,7.8950756 10.07122,7.652338 10.482516,7.4262608 10.845844,7.2265508 9.0508944,8.263293 9.4066362,8.0503634 9.8069784,7.8107384 10.216571,7.5867668 10.616328,7.3461678 10.974319,7.1307066 9.1688428,8.1816586 9.5319522,7.9749406 9.8138256,7.81447 12.292681,6.373893 9.660235,7.9029348 10.417063,7.4504018 12.09886,6.4922678 9.8573056,7.7804854 9.8148146,7.804905 9.9408278,7.7291682 9.9832442,7.704619 10.38604,7.4714934 10.788049,7.2370124 11.190452,7.003209 9.2135124,8.1544564 10.018851,7.7070772 10.443687,7.4104082 c 0.13353,-0.116722 -0.01538,0.00662 0.130424,-0.093482 0.06738,-0.046262 0.12147,-0.104136 0.182586,-0.156872 0.02196,-0.01894 0.0469,-0.034136 0.07034,-0.051204 0.123208,-0.115638 0.261485,-0.215993 0.390241,-0.326034 0.113478,-0.127512 0.25636,-0.2286392 0.388545,-0.3358058 0.124352,-0.115074 0.253314,-0.223845 0.367487,-0.3484154 0.116644,-0.141854 0.25776,-0.2629996 0.385971,-0.3942736 0.13314,-0.129036 0.245006,-0.278458 0.362118,-0.4216472 0.11384,-0.139726 0.229102,-0.2756818 0.332384,-0.4232128 0.09304,-0.120696 0.194,-0.23651 0.25991,-0.3746824 0.0885,-0.143818 0.15132,-0.2987726 0.242218,-0.4407358 0.0877,-0.156134 0.1756,-0.3105746 0.243958,-0.4770286 0.05042,-0.139196 0.11392,-0.2758416 0.14356,-0.4206232 0.03866,-0.166738 0.08246,-0.3287696 0.09352,-0.5009462 0.03792,-0.197704 0.07862,-0.3928592 0.09036,-0.594616 0.02884,-0.2124452 0.05776,-0.4227234 0.03064,-0.6375454 -0.0148,-0.186322 -0.04382,-0.3701822 -0.07806,-0.55387759 -0.0048,-0.176218 -0.0116,-0.3540554 -0.0603,-0.5246952 -0.05841,-0.181679 -0.134445,-0.3587156 -0.226027,-0.5261094 -0.07949,-0.157935 -0.166886,-0.3127692 -0.269148,-0.4571548 -0.0953,-0.140326 -0.191096,-0.2803462 -0.295446,-0.41422141 -0.09686,-0.1425284 -0.204824,-0.2773884 -0.299176,-0.4216938 -0.118762,-0.153135 -0.239628,-0.3043648 -0.361544,-0.454963 -0.12576,-0.1669914 -0.251829,-0.333532 -0.375417,-0.5021158 -0.117193,-0.1693694 -0.23768,-0.337642 -0.378364,-0.4885578 C 11.70144,-3.0556552 11.585804,-3.1785094 11.473191,-3.3043536 11.366626,-3.4096248 11.254465,-3.5078434 11.14807,-3.613169 11.042727,-3.7120466 10.939941,-3.813627 10.826538,-3.90356 10.672533,-4.0203532 10.518815,-4.1389926 10.349537,-4.2332906 10.190956,-4.3274266 10.035999,-4.4275956 9.8709768,-4.5104924 9.7147632,-4.5960566 9.561582,-4.6874584 9.3984668,-4.759641 9.255249,-4.8365248 9.1038364,-4.8934342 8.955638,-4.9597354 8.78363,-5.0310096 8.6096044,-5.0987808 8.4318386,-5.154392 8.252521,-5.2085402 8.0742166,-5.2660838 7.8928146,-5.3131492 7.710186,-5.361396 7.5330172,-5.4275502 7.3503046,-5.4758218 7.1734382,-5.5193046 6.995032,-5.5511076 6.8136918,-5.569007 6.6384172,-5.5970308 6.4643506,-5.6288216 6.285983,-5.6066714 6.13198,-5.5951266 5.9773164,-5.577826 5.8365338,-5.509168 4.6125572,-4.9644504 9.3948878,-7.4948004 5.4774424,-5.3262176 5.8398022,-5.5383152 6.202162,-5.7504127 6.564522,-5.9625103 c -0.0177,0.011666 -0.036724,0.021513 -0.05307,0.034997 -0.049928,0.041188 -0.097402,0.086418 -0.15218,0.121979 -0.01776,0.011528 -0.038466,0.017694 -0.057698,0.026541 -0.100468,0.077909 -0.181226,0.1804722 -0.2702938,0.2702982 -0.100446,0.077882 -0.181178,0.180406 -0.270271,0.2701594 -0.100444,0.07774 -0.181224,0.180108 -0.2703914,0.2696724 -0.101958,0.078958 -0.184582,0.18325 -0.2722698,0.2768582 -0.108262,0.094296 -0.192432,0.2183074 -0.2723542,0.3364434 -0.087232,0.105906 -0.185472,0.19772 -0.2689356,0.3057172 -0.102046,0.104106 -0.166864,0.2365386 -0.242244,0.3602952 -0.083738,0.105006 -0.13724,0.2326298 -0.2246412,0.336487 -0.060244,0.137952 -0.158042,0.2520866 -0.2219034,0.3887042 -0.08683,0.125752 -0.13608,0.2766986 -0.2181278,0.406429 -0.098154,0.146982 -0.160838,0.3165504 -0.2329972,0.4772388 -0.0618,0.1268 -0.114464,0.2567608 -0.163622,0.3884862 -0.033376,0.072014 -0.043374,0.144324 -0.067664,0.2196106 -0.0162,0.05023 -0.041884,0.097168 -0.056846,0.14778 -0.00892,0.030148 -0.01272,0.061576 -0.01908,0.092362 -0.044724,0.168142 -0.103658,0.33179139 -0.152628,0.49864859 -0.028098,0.148692 -0.088208,0.2861254 -0.10469,0.4369346 -0.037904,0.148078 -0.0881,0.2900818 -0.109694,0.4423666 -0.050204,0.16339 -0.070996,0.329876 -0.11294,0.4957892 -0.042436,0.14426 -0.045924,0.299061 -0.112542,0.43702721 -0.022044,0.163306 -0.075298,0.3164852 -0.103082,0.4775432 -0.029916,0.180566 -0.083598,0.3552032 -0.104812,0.537147 -0.033998,0.159858 -0.076768,0.3164314 -0.102924,0.4778638 -0.044482,0.15104 -0.058216,0.304049 -0.094472,0.4574414 -0.05032,0.163384 -0.071212,0.329844 -0.11261,0.4959236 -0.043304,0.151224 -0.047672,0.312281 -0.1063,0.4603562 -0.01784,0.1837 -0.048036,0.365759 -0.111064,0.5400804 -0.029956,0.162394 -0.08374,0.3167732 -0.119428,0.4775578 -0.048756,0.146646 -0.071444,0.2969084 -0.122516,0.4432114 -0.06048,0.15073 -0.078076,0.3190522 -0.13211,0.4725846 -0.042416,0.146124 -0.102662,0.2849064 -0.141188,0.43254 -0.069266,0.168676 -0.094704,0.3557036 -0.165298,0.5249698 -0.0554,0.160154 -0.115068,0.3186586 -0.166514,0.479847 -0.054788,0.155144 -0.086916,0.314084 -0.14192797,0.4694754 -0.030306,0.144542 -0.094458,0.2736884 -0.126676,0.4172936 -0.01628,0.041746 -0.039532,0.080738 -0.053512,0.123306 -0.029522,0.08989 -0.035242,0.188888 -0.090044,0.2703446 -0.030262,0.144604 -0.09431,0.273864 -0.12656,0.417511 -0.01632,0.041724 -0.039636,0.080664 -0.053794,0.123168 -0.02982,0.089512 -0.035848,0.188122 -0.093382,0.2678656 -0.033486,0.13986 -0.103032,0.2589056 -0.14828,0.3942156 -0.032532,0.067548 -0.040798,0.134912 -0.064682,0.2055833 -0.01434,0.04242 -0.039554,0.08064 -0.053682,0.123128 -0.00818,0.02458 -0.01084,0.05065 -0.01626,0.07598 -0.0414,0.137804 -0.101674,0.268845 -0.152208,0.403187 -0.081442,0.131418 -0.122492,0.28696 -0.181684,0.429154 -0.065222,0.133368 -0.121232,0.269597 -0.18057,0.405373 -0.071562,0.133192 -0.102702,0.286132 -0.176634,0.419185 -0.075118,0.111778 -0.113586,0.24739 -0.16753,0.37011 -0.03415,0.06566 -0.043636,0.13232 -0.070982,0.20069 -0.0084,0.02098 -0.01918,0.04094 -0.028764,0.0614 -0.01092,0.0178 -0.024484,0.0344 -0.03274,0.05366 -0.0097,0.02262 -0.01378,0.04728 -0.02066,0.0709 -0.0163,0.0417 -0.039586,0.08064 -0.053602,0.12318 -0.029572,0.08974 -0.035372,0.1886 -0.090124,0.26991 -0.030166,0.14504 -0.09452,0.275378 -0.121232,0.420908 -0.04799,0.14612 -0.06954,0.295098 -0.114388,0.442552 -0.054556,0.15884 -0.051202,0.33454 -0.121784,0.490162 -0.02676,0.1519 -0.083698,0.294892 -0.091162,0.449888 -0.028096,0.14886 -0.088152,0.286512 -0.104506,0.437502 -0.036978,0.14512 -0.086514,0.284124 -0.108536,0.433106 -0.048024,0.14372 -0.067454,0.280564 -0.120358,0.421256 -0.032782,0.06736 -0.041196,0.13486 -0.06598,0.205148 -0.00772,0.02188 -0.01758,0.04292 -0.026372,0.06438 -0.01006,0.0194 -0.0227,0.03748 -0.03019,0.05794 -0.00894,0.0244 -0.0125,0.05044 -0.01876,0.07568 -0.04939,0.1404 -0.125218,0.269304 -0.183112,0.406448 -0.045422,0.15412 -0.10753,0.304366 -0.17979,0.447594 -0.043406,0.14524 -0.10222,0.288454 -0.178958,0.419014 -0.051168,0.15368 -0.124318,0.2986 -0.180314,0.450604 -0.051172,0.15352 -0.12432,0.29825 -0.180142,0.450168 -0.049742,0.15048 -0.12091,0.292072 -0.172552,0.44204 -0.043822,0.14842 -0.10601,0.289914 -0.152664,0.437512 -0.072976,0.15066 -0.10416,0.320038 -0.182568,0.469248 -0.4603342,0.253386 -1.4376212,1.184858 -1.289418,0.32743 0.032884,-0.1711 0.039614,-0.341274 0.051068,-0.515098 0.021816,-0.16202 0.074314,-0.313956 0.102512,-0.473546 0.028124,-0.16808 0.07952,-0.329722 0.103236,-0.49839 0.041876,-0.16756 0.092912,-0.330386 0.119154,-0.501862 0.05219,-0.17988 0.0925,-0.362756 0.158116,-0.538548 0.043916,-0.18318 0.09915,-0.363348 0.149166,-0.544806 0.063648,-0.17592 0.103512,-0.359988 0.151136,-0.540654 0.055454,-0.17372 0.11264,-0.347624 0.148662,-0.526524 0.038906,-0.16006 0.089606,-0.316822 0.13593,-0.474658 0.065286,-0.16846 0.085434,-0.355276 0.141214,-0.527386 0.044588,-0.16788 0.103106,-0.331542 0.154272,-0.497382 0.0315,-0.15044 0.098038,-0.285766 0.132386,-0.435196 0.062778,-0.16218 0.106538,-0.330686 0.1876,-0.485468 0.055198,-0.14254 0.12409,-0.278 0.182172,-0.418182 0.07602,-0.17178 0.145858,-0.34509 0.2194384,-0.518304 0.087746,-0.17956 0.170752,-0.359714 0.2572538,-0.539684 0.083374,-0.18207 0.178378,-0.358599 0.264238,-0.539485 0.076884,-0.179766 0.161534,-0.356234 0.2413336,-0.53463 0.08547,-0.146288 0.136598,-0.307809 0.2178798,-0.456346 0.07673,-0.145584 0.111244,-0.311815 0.187922,-0.458468 0.082724,-0.151786 0.12752,-0.323239 0.206801,-0.4775411 0.055104,-0.167956 0.131838,-0.3272256 0.18300406,-0.4969944 0.05061,-0.182674 0.117684,-0.3604574 0.17879,-0.5397456 0.047948,-0.180912 0.111068,-0.3570898 0.161096,-0.537467 0.038096,-0.185092 0.104816,-0.3605642 0.150012,-0.5437454 0.055274,-0.176954 0.08664,-0.3622492 0.138908,-0.540128 0.043702,-0.172076 0.101696,-0.3393576 0.134622,-0.5142724 0.01422,-0.158652 0.039134,-0.3152424 0.091012,-0.4665234 0.01576,-0.182544 0.043156,-0.3633402 0.090354,-0.5406806 0.01598,-0.18253 0.043754,-0.3632404 0.090902,-0.5405842 0.01522,-0.179888 0.042078,-0.3578542 0.077072,-0.5349736 -5.672e-4,-0.1725555 -5.042e-4,-0.3453521 -0.013663,-0.5175025 -0.0151312,-0.1532712 -0.0455918,-0.3025574 -0.0897486,-0.450227 -0.0154062,-0.1586748 -0.0473266,-0.3132312 -0.0905228,-0.466726 -0.0185812,-0.1821632 -0.0543192,-0.3606224 -0.114506,-0.5340324 -0.0385058,-0.1827772 -0.1032218,-0.357719 -0.144248,-0.5398784 -0.0533192,-0.1926254 -0.0860636,-0.3911148 -0.177448,-0.5718812 -0.0670752,-0.1999226 -0.1343888,-0.399231 -0.2272224,-0.58892639 -0.0818874,-0.1793938 -0.1446458,-0.3673992 -0.2414468,-0.539799 -0.0872968,-0.1812646 -0.18203126,-0.359216 -0.28184306,-0.5338458 -0.090344,-0.161361 -0.1959356,-0.3129582 -0.2901328,-0.4719966 -0.099224,-0.1420978 -0.1945408,-0.2873704 -0.3117288,-0.4156946 C -1.980839,-1.1429698 -2.1033834,-1.2892966 -2.216956,-1.4431262 -2.3283762,-1.580901 -2.4329856,-1.7249486 -2.5597948,-1.849588 -2.6789382,-1.989778 -2.7821154,-2.14251 -2.9019388,-2.2822566 -3.0309118,-2.439158 -3.1678188,-2.5888084 -3.3083432,-2.7354358 -3.407749,-2.84134 -3.5123054,-2.9412162 -3.6333414,-3.022659 -3.7613608,-3.1183856 -3.888213,-3.2148568 -4.0116866,-3.3164192 -4.1496588,-3.423341 -4.2934288,-3.522578 -4.433509,-3.6267364 -4.571492,-3.717983 -4.7091742,-3.8096156 -4.8499568,-3.8965706 -5.005422,-4.0103266 -5.1625774,-4.1215198 -5.323316,-4.227787 c -0.144168,-0.1003658 -0.295283,-0.1900678 -0.4588082,-0.2556028 -0.2362353,-0.093628 -0.4805662,-0.169092 -0.7292873,-0.2214506 0,0 1.1007213,-0.7592342 1.1007213,-0.7592342 z"
       inkscape:connector-curvature="0" />
  </g>
  <g
     inkscape:groupmode="layer"
     id="layer2"
     inkscape:label="Layer" />
  <g
     inkscape:groupmode="layer"
     id="layer3"
     inkscape:label="Layer#1" />
</svg>
