<svg xmlns:dc="http://purl.org/dc/elements/1.1/" xmlns:cc="http://creativecommons.org/ns#" xmlns:rdf="http://www.w3.org/1999/02/22-rdf-syntax-ns#" xmlns:svg="http://www.w3.org/2000/svg" xmlns="http://www.w3.org/2000/svg" xmlns:sodipodi="http://sodipodi.sourceforge.net/DTD/sodipodi-0.dtd" xmlns:inkscape="http://www.inkscape.org/namespaces/inkscape" width="516" height="265" id="svg2" version="1.1" inkscape:version="0.48.4 r9939">
  <defs id="defs4">
    <inkscape:perspective inkscape:vp_x="0 : 526.18109 : 1" inkscape:vp_y="0 : 1000 : 0" inkscape:vp_z="744.09448 : 526.18109 : 1" inkscape:persp3d-origin="372.04724 : 350.78739 : 1" id="perspective5259"/>
    <inkscape:path-effect effect="bend_path" id="path-effect4486" is_visible="true" bendpath="m 20,113.79075 334.39436,0" prop_scale="0.95" scale_y_rel="false" vertical="false"/>
  </defs>
  <metadata id="metadata7">
    <rdf:RDF>
      <cc:Work rdf:about="">
        <dc:format>image/svg+xml</dc:format>
        <dc:type rdf:resource="http://purl.org/dc/dcmitype/StillImage"/>
        <dc:title/>
      </cc:Work>
    </rdf:RDF>
  </metadata>
  <g inkscape:label="Layer 1" inkscape:groupmode="layer" id="layer1">
    <path style="fill:none;stroke:#ff9e00;stroke-width:59.91891098;stroke-linecap:butt;stroke-linejoin:miter;stroke-miterlimit:4;stroke-opacity:1;stroke-dasharray:none" id="path5275" d="m125.7 755.2c1.2 0.6 -1.1 2.8 -1.4 3 -7 4.4 -14.1 -5.4 -15.3 -11.1 -5 -22.3 20.1 -37.4 39.1 -38.1 47.8 -1.8 75.6 49.8 72.6 92 -6.1 85.2 -97.7 130.9 -174.9 119.9" transform="matrix(0.77529817,0,0,0.493518,318.51836,457.77353)"/>
    <path transform="matrix(0.77529817,0,0,-0.493518,324.23264,1374.3816)" d="m125.7 755.2c1.2 0.6 -1.1 2.8 -1.4 3 -7 4.4 -14.1 -5.4 -15.3 -11.1 -5 -22.3 20.1 -37.4 39.1 -38.1 47.8 -1.8 75.6 49.8 72.6 92 -6.1 85.2 -97.7 130.9 -174.9 119.9" id="path5287" style="fill:none;stroke:#ff9e00;stroke-width:59.91891098;stroke-linecap:butt;stroke-linejoin:miter;stroke-miterlimit:4;stroke-opacity:1;stroke-dasharray:none"/>
    <path transform="matrix(0.77529817,0,0,0.493518,146.51836,463.48782)" d="m148 709c47.8 -1.8 75.6 49.8 72.6 92 -6.1 85.2 -97.7 130.9 -174.9 119.9" id="path5289" style="fill:none;stroke:#ff9e00;stroke-width:59.91891098;stroke-linecap:butt;stroke-linejoin:miter;stroke-miterlimit:4;stroke-opacity:1;stroke-dasharray:none"/>
    <path style="fill:none;stroke:#ff9e00;stroke-width:59.91891098;stroke-linecap:butt;stroke-linejoin:miter;stroke-miterlimit:4;stroke-opacity:1;stroke-dasharray:none" id="path5291" d="m148 709c47.8 -1.8 75.6 49.8 72.6 92 -6.1 85.2 -97.7 130.9 -174.9 119.9" transform="matrix(0.77529817,0,0,-0.493518,152.23264,1380.0958)"/>
    <path transform="matrix(0.77529817,0,0,0.493518,-25.481641,469.88327)" d="M172.3 101.3 C137 129.6 90 139.9 45.7 133.5 " id="path5295" style="fill:none;stroke:#ff9e00;stroke-width:59.91891098;stroke-linecap:butt;stroke-linejoin:miter;stroke-miterlimit:4;stroke-opacity:1;stroke-dasharray:none"/>
    <path style="fill:none;stroke:#ff9e00;stroke-width:59.91891098;stroke-linecap:butt;stroke-linejoin:miter;stroke-miterlimit:4;stroke-opacity:1;stroke-dasharray:none" id="path5297" d="M172.3 101.3 C137 129.6 90 139.9 45.7 133.5 " transform="matrix(0.77529817,0,0,-0.493518,-19.767351,1386.4914)"/>
  </g>
</svg>
