<?xml version="1.0" encoding="UTF-8" standalone="no"?>
<!-- Created with Inkscape (http://www.inkscape.org/) -->

<svg
   xmlns:dc="http://purl.org/dc/elements/1.1/"
   xmlns:cc="http://creativecommons.org/ns#"
   xmlns:rdf="http://www.w3.org/1999/02/22-rdf-syntax-ns#"
   xmlns:svg="http://www.w3.org/2000/svg"
   xmlns="http://www.w3.org/2000/svg"
   xmlns:sodipodi="http://sodipodi.sourceforge.net/DTD/sodipodi-0.dtd"
   xmlns:inkscape="http://www.inkscape.org/namespaces/inkscape"
   width="800px"
   height="600px"
   id="svg5299"
   version="1.1"
   inkscape:version="0.48.4 r9939"
   sodipodi:docname="New document 3">
  <defs
     id="defs5301" />
  <sodipodi:namedview
     id="base"
     pagecolor="#ffffff"
     bordercolor="#666666"
     borderopacity="1.0"
     inkscape:pageopacity="0.0"
     inkscape:pageshadow="2"
     inkscape:zoom="0.6"
     inkscape:cx="400"
     inkscape:cy="304.90283"
     inkscape:current-layer="layer3"
     inkscape:document-units="px"
     showgrid="false"
     inkscape:window-width="748"
     inkscape:window-height="851"
     inkscape:window-x="637"
     inkscape:window-y="111"
     inkscape:window-maximized="0" />
  <metadata
     id="metadata5304">
    <rdf:RDF>
      <cc:Work
         rdf:about="">
        <dc:format>image/svg+xml</dc:format>
        <dc:type
           rdf:resource="http://purl.org/dc/dcmitype/StillImage" />
        <dc:title></dc:title>
      </cc:Work>
    </rdf:RDF>
  </metadata>
  <g
     inkscape:groupmode="layer"
     id="layer2"
     inkscape:label="Sketch">
    <path
       style="fill:none;stroke:#000000;stroke-width:1px;stroke-linecap:butt;stroke-linejoin:miter;stroke-opacity:1"
       d="m 186.66667,371.66667 c 9.44444,0 18.88889,0 28.33333,0 0.61206,0 6.5996,-0.0671 6.66667,0 0.39283,0.39283 -0.39284,1.27383 0,1.66666 0.45603,0.45604 5.76252,-0.45207 6.66666,0 0.70273,0.35137 0.96394,1.31531 1.66667,1.66667 0.99381,0.4969 2.33953,-0.4969 3.33333,0 0.70273,0.35136 0.96394,1.3153 1.66667,1.66667 0.86512,0.43255 2.46822,-0.43256 3.33333,0 0.70273,0.35136 0.96394,1.3153 1.66667,1.66666 0.66082,0.33041 4.65927,-0.34072 5,0 0.39284,0.39284 -0.39284,1.27383 0,1.66667 0.83333,0.83333 4.16667,-0.83333 5,0 0.39284,0.39284 -0.39284,1.27383 0,1.66667 0.54706,0.54706 2.78627,-0.54706 3.33333,0 0.39284,0.39283 0,1.11111 0,1.66666 0,0.78583 0.0755,8.2578 0,8.33334 -2.22222,2.22222 -1.66666,-2.77778 -1.66666,1.66666 0,0.55556 0,1.11111 0,1.66667 0,0.55556 0.39283,1.27383 0,1.66667 -0.39284,0.39283 -1.27383,-0.39284 -1.66667,0 -0.39284,0.39283 0.24845,1.16976 0,1.66666 -0.35136,0.70273 -1.3153,0.96394 -1.66667,1.66667 -0.24845,0.4969 0.39284,1.27383 0,1.66667 -0.39283,0.39283 -1.27383,-0.39284 -1.66666,0 -0.39284,0.39283 0.39283,1.27383 0,1.66666 -0.39284,0.39284 -1.27383,-0.39283 -1.66667,0 -0.39284,0.39284 0.39284,1.27383 0,1.66667 -0.39284,0.39284 -1.27383,-0.39284 -1.66667,0 -0.39283,0.39284 0.39284,1.27383 0,1.66667 -0.39283,0.39283 -1.27383,-0.39284 -1.66666,0 -0.39284,0.39283 0.39283,1.27383 0,1.66666 -0.39284,0.39284 -1.16977,-0.24845 -1.66667,0 -1.40546,0.70273 -1.92788,2.63061 -3.33333,3.33334 -0.49691,0.24845 -1.27383,-0.39284 -1.66667,0 -0.39284,0.39283 0.39284,1.27383 0,1.66666 -0.39284,0.39284 -1.16976,-0.24845 -1.66667,0 -0.70273,0.35137 -0.96393,1.31531 -1.66666,1.66667 -0.49691,0.24845 -1.27383,-0.39284 -1.66667,0 -0.39284,0.39284 0.39284,1.27383 0,1.66667 -0.39284,0.39283 -1.27383,-0.39284 -1.66667,0 -0.39283,0.39283 0.39284,1.27383 0,1.66666 -0.39283,0.39284 -1.27383,-0.39283 -1.66666,0 -0.39284,0.39284 0.39283,1.27383 0,1.66667 -0.54706,0.54706 -2.78628,-0.54706 -3.33334,0 -0.39283,0.39284 0.39284,1.27383 0,1.66667 -0.39283,0.39283 -1.16976,-0.24846 -1.66666,0 -0.70273,0.35136 -0.96394,1.3153 -1.66667,1.66666 -0.4969,0.24846 -1.27383,-0.39283 -1.66667,0 -0.39283,0.39284 0.39284,1.27383 0,1.66667 -0.39283,0.39284 -1.27383,-0.39284 -1.66666,0 -0.39284,0.39284 0.39283,1.27383 0,1.66667 -0.54706,0.54706 -2.78628,-0.54706 -3.33334,0 -0.39283,0.39283 0.39284,1.27383 0,1.66666 -0.55603,0.55604 -2.7773,-0.55603 -3.33333,0 -0.39284,0.39284 0.39284,1.27383 0,1.66667 -0.78567,0.78567 -2.33953,-0.4969 -3.33333,0 -0.70273,0.35136 -0.96394,1.3153 -1.66667,1.66667 -0.66082,0.33041 -4.65927,-0.34073 -5,0 -0.39284,0.39283 0.39284,1.27383 0,1.66666 -0.0671,0.0671 -6.05461,0 -6.66667,0 -0.55555,0 -1.27383,0.39284 -1.66666,0 -0.39284,-0.39283 0.39283,-1.27383 0,-1.66666 -0.83334,-0.83334 -4.16667,0.83333 -5,0 -0.39284,-0.39284 0.39283,-1.27383 0,-1.66667 -0.5407,-0.5407 -2.79264,0.5407 -3.33334,0 -0.39283,-0.39284 0.39284,-1.27383 0,-1.66667 -0.39283,-0.39283 -1.27383,0.39284 -1.66666,0 -0.78568,-0.78567 0.78567,-2.54766 0,-3.33333 -0.39284,-0.39284 -1.27383,0.39284 -1.66667,0 -0.54706,-0.54706 0.54706,-2.78627 0,-3.33333 -0.39284,-0.39284 -1.27383,0.39283 -1.66667,0 -0.78567,-0.78568 0.49691,-2.33953 0,-3.33334 -0.35136,-0.70273 -1.3153,-0.96393 -1.66666,-1.66666 -0.30136,-0.60273 0,-7.1741 0,-8.33334 0,-0.61206 -0.0671,-6.59959 0,-6.66666 0.39283,-0.39284 1.27383,0.39283 1.66666,0 0.78568,-0.78568 -0.4969,-2.33953 0,-3.33334 0.35137,-0.70273 1.31531,-0.96393 1.66667,-1.66666 0.24845,-0.49691 -0.39284,-1.27383 0,-1.66667 0.39284,-0.39284 1.27383,0.39284 1.66667,0 0.39283,-0.39284 -0.24846,-1.16976 0,-1.66667 0.35136,-0.70273 1.3153,-0.96393 1.66666,-1.66666 0.24846,-0.49691 -0.39283,-1.27383 0,-1.66667 0.39284,-0.39284 1.16977,0.24845 1.66667,0 6.93627,-3.46813 -1.78173,0.11506 1.66667,-3.33333 0.39283,-0.39284 1.16976,0.24845 1.66666,0 1.38621,-0.69311 1.94713,-2.64023 3.33334,-3.33334 0.4969,-0.24845 1.27383,0.39284 1.66666,0 0.39284,-0.39283 -0.39283,-1.27383 0,-1.66666 0.39284,-0.39284 1.27383,0.39283 1.66667,0 0.39284,-0.39284 -0.39284,-1.27383 0,-1.66667 0.39284,-0.39284 1.27383,0.39284 1.66667,0 0.39283,-0.39284 -0.39284,-1.27383 0,-1.66667 0.83333,-0.83333 4.16666,0.83334 5,0 0.39283,-0.39283 -0.39284,-1.27383 0,-1.66666 0.39283,-0.39284 1.11111,0 1.66666,0 3.33334,0 6.66667,0 10,0 0.55556,0 1.27383,0.39283 1.66667,0 0.39284,-0.39284 -0.39284,-1.27383 0,-1.66667 0.39284,-0.39284 1.11111,0 1.66667,0 0.55555,0 1.11111,0 1.66666,0"
       id="path5822"
       inkscape:connector-curvature="0" />
    <path
       style="fill:none;stroke:#000000;stroke-width:1px;stroke-linecap:butt;stroke-linejoin:miter;stroke-opacity:1"
       d="M 258.33333,381.66667 C 260.55556,381.11111 262.75387,380.44923 265,380 c 1.08953,-0.21791 2.22222,0 3.33333,0 3.33334,0 6.66667,0 10,0 0.40421,0 4.9464,-0.0536 5,0 0.39284,0.39284 -0.39283,1.27383 0,1.66667 0.40106,0.40105 6.26562,-0.40106 6.66667,0 0.39284,0.39283 -0.39284,1.27383 0,1.66666 0.83333,0.83334 4.16667,-0.83333 5,0 0.39284,0.39284 -0.39284,1.27383 0,1.66667 0.39284,0.39284 1.27383,-0.39284 1.66667,0 0.39283,0.39284 -0.39284,1.27383 0,1.66667 0.39283,0.39283 1.27383,-0.39284 1.66666,0 0.39284,0.39283 0,1.11111 0,1.66666 0.55556,0 1.27383,-0.39283 1.66667,0 0.39284,0.39284 -0.39284,1.27383 0,1.66667 0.39284,0.39284 1.27383,-0.39284 1.66667,0 0.39283,0.39284 -0.24846,1.16976 0,1.66667 1,2 4,3 5,5 0.24845,0.4969 -0.24846,1.16976 0,1.66666 0.35136,0.70273 1.3153,0.96394 1.66666,1.66667 0.24846,0.4969 -0.24845,1.16976 0,1.66667 0.35137,0.70273 1.31531,0.96393 1.66667,1.66666 0.24845,0.49691 0,1.11111 0,1.66667 0,0.55556 0,1.11111 0,1.66667 0,2.77777 0,5.55555 0,8.33333 0,0.87153 0.21912,6.22843 0,6.66667 -0.35136,0.70273 -1.3153,0.96393 -1.66667,1.66666 -0.33041,0.66082 0.34073,4.65928 0,5 -0.39283,0.39284 -1.27383,-0.39283 -1.66666,0 -0.5407,0.5407 0.54069,2.79264 0,3.33334 -0.39284,0.39283 -1.27383,-0.39284 -1.66667,0 -0.39284,0.39283 0.24845,1.16976 0,1.66666 -0.35136,0.70273 -1.3153,0.96394 -1.66667,1.66667 -0.24845,0.4969 0.39284,1.27383 0,1.66667 -0.39283,0.39283 -1.27383,-0.39284 -1.66666,0 -0.39284,0.39283 0.24845,1.16976 0,1.66666 -0.35137,0.70273 -1.31531,0.96394 -1.66667,1.66667 -0.24845,0.4969 0.39284,1.27383 0,1.66667 -0.39284,0.39283 -1.27383,-0.39284 -1.66667,0 -0.39283,0.39283 0.39284,1.27383 0,1.66666 -0.39283,0.39284 -1.16976,-0.24845 -1.66666,0 -1.10527,0.55263 -2.22807,2.78071 -3.33334,3.33334 -0.4969,0.24845 -1.27383,-0.39284 -1.66666,0 -0.39284,0.39283 0.39283,1.27383 0,1.66666 -0.39284,0.39284 -1.16977,-0.24845 -1.66667,0 -0.70273,0.35137 -0.96394,1.31531 -1.66667,1.66667 -0.4969,0.24845 -1.27383,-0.39284 -1.66666,0 -0.39284,0.39284 0.39283,1.27383 0,1.66667 -0.78568,0.78567 -2.54766,-0.78568 -3.33334,0 -0.39283,0.39283 0.39284,1.27383 0,1.66666 -0.78567,0.78568 -2.54766,-0.78567 -3.33333,0 -0.39284,0.39284 0.39284,1.27383 0,1.66667 -0.83333,0.83333 -4.16667,-0.83333 -5,0 -0.39284,0.39284 0.39284,1.27383 0,1.66667 -0.45604,0.45603 -5.76252,-0.45208 -6.66667,0 -0.70273,0.35136 -0.96393,1.3153 -1.66666,1.66666 -1.15123,0.57561 -7.7483,-0.58503 -8.33334,0 -0.39283,0.39284 0.39284,1.27383 0,1.66667 -0.39283,0.39284 -1.11111,0 -1.66666,0 -4.44445,0 -8.88889,0 -13.33334,0 -6.66666,0 -13.33333,0 -20,0 -0.55555,0 -1.11111,0 -1.66666,0 -0.55556,0 -1.27383,0.39284 -1.66667,0 -0.39284,-0.39284 0.39284,-1.27383 0,-1.66667 -0.39284,-0.39283 -1.27383,0.39284 -1.66667,0 -0.39283,-0.39283 0,-1.11111 0,-1.66666 0,-0.55556 -0.39283,-1.27383 0,-1.66667 0.39284,-0.39284 1.27383,0.39284 1.66667,0 0.0536,-0.0536 0,-4.59579 0,-5 0,-4.44444 -0.55556,0.55556 1.66667,-1.66667 0.78567,-0.78567 -0.49691,-2.33952 0,-3.33333 0.35136,-0.70273 1.3153,-0.96394 1.66666,-1.66667 0.49691,-0.9938 -0.78567,-2.54766 0,-3.33333 0.39284,-0.39284 1.27383,0.39284 1.66667,0 0.5407,-0.5407 -0.5407,-2.79264 0,-3.33333 0.39284,-0.39284 1.27383,0.39283 1.66667,0 0.55603,-0.55604 -0.55604,-2.7773 0,-3.33334 0.39283,-0.39283 1.27383,0.39284 1.66666,0 0.39284,-0.39283 -0.24845,-1.16976 0,-1.66666 0.35137,-0.70273 1.31531,-0.96394 1.66667,-1.66667 0.24845,-0.4969 -0.39284,-1.27383 0,-1.66667 0.39284,-0.39283 1.27383,0.39284 1.66667,0 0.39283,-0.39283 -0.24846,-1.16976 0,-1.66666 0.35136,-0.70273 1.3153,-0.96394 1.66666,-1.66667 0.24846,-0.4969 -0.39283,-1.27383 0,-1.66667 0.39284,-0.39283 1.27383,0.39284 1.66667,0 0.78567,-0.78567 -0.78567,-2.54766 0,-3.33333 0.39284,-0.39284 1.11111,0 1.66667,0 0,-0.55556 -0.24846,-1.16976 0,-1.66667 0.35136,-0.70273 1.3153,-0.96393 1.66666,-1.66666 0.24846,-0.49691 -0.24845,-1.16977 0,-1.66667 0.35137,-0.70273 1.31531,-0.96394 1.66667,-1.66667 0.24845,-0.4969 -0.39284,-1.27383 0,-1.66666 0.39284,-0.39284 1.27383,0.39283 1.66667,0 0.55603,-0.55604 -0.55604,-2.7773 0,-3.33334 0.39283,-0.39283 1.27383,0.39284 1.66666,0 0.78568,-0.78567 -0.78567,-2.54766 0,-3.33333 0.39284,-0.39284 1.27383,0.39284 1.66667,0 0.5407,-0.5407 -0.5407,-2.79264 0,-3.33333 0.39284,-0.39284 1.27383,0.39283 1.66667,0 0.39283,-0.39284 -0.39284,-1.27383 0,-1.66667 0.39283,-0.39284 1.27383,0.39284 1.66666,0 0.39284,-0.39284 -0.24845,-1.16976 0,-1.66667 0.35137,-0.70273 1.31531,-0.96393 1.66667,-1.66666 0.24845,-0.49691 -0.39284,-1.27383 0,-1.66667 0.39284,-0.39284 1.27383,0.39284 1.66667,0 0.39283,-0.39284 -0.39284,-1.27383 0,-1.66667 0.39283,-0.39283 1.27383,0.39284 1.66666,0 0.39284,-0.39283 -0.39283,-1.27383 0,-1.66666 0.39284,-0.39284 1.27383,0.39283 1.66667,0 0.39284,-0.39284 -0.39284,-1.27383 0,-1.66667 0.39284,-0.39284 1.46034,0.51582 1.66667,0 1.05207,-2.63018 -0.33642,-6.33025 1.66666,-8.33333 2.00309,-2.00309 5.70316,-0.6146 8.33334,-1.66667 0.51582,-0.20633 -0.39284,-1.27383 0,-1.66667 0.39283,-0.39283 1.27383,0.39284 1.66666,0 0.39284,-0.39283 -0.39283,-1.27383 0,-1.66666 0.39284,-0.39284 1.27383,0.39283 1.66667,0 0.39284,-0.39284 -0.39284,-1.27383 0,-1.66667 0.39284,-0.39284 1.27383,0.39284 1.66667,0 0.39283,-0.39284 -0.24846,-1.16976 0,-1.66667 0.35136,-0.70273 1.3153,-0.96393 1.66666,-1.66666 0.24846,-0.49691 -0.39283,-1.27383 0,-1.66667 0.39284,-0.39284 1.27383,0.39284 1.66667,0 2.22222,-2.22222 -2.77778,-1.66667 1.66667,-1.66667"
       id="path5824"
       inkscape:connector-curvature="0" />
    <path
       style="fill:none;stroke:#000000;stroke-width:1px;stroke-linecap:butt;stroke-linejoin:miter;stroke-opacity:1"
       d="m 401.66667,381.66667 c 0.0828,3.88354 6.74246,3.48493 8.33333,6.66666 0.24845,0.49691 -0.39284,1.27383 0,1.66667 0.39284,0.39284 1.16976,-0.24845 1.66667,0 1.40545,0.70273 1.92787,2.6306 3.33333,3.33333 0.4969,0.24846 1.27383,-0.39283 1.66667,0 0.39283,0.39284 -0.39284,1.27383 0,1.66667 0.39283,0.39284 1.27383,-0.39284 1.66666,0 0.39284,0.39284 -0.39283,1.27383 0,1.66667 0.39284,0.39283 1.27383,-0.39284 1.66667,0 0.39284,0.39283 -0.39284,1.27383 0,1.66666 0.39284,0.39284 1.27383,-0.39283 1.66667,0 0.39283,0.39284 -0.39284,1.27383 0,1.66667 0.39283,0.39284 1.27383,-0.39284 1.66666,0 0.39284,0.39284 -0.39283,1.27383 0,1.66667 0.39284,0.39283 1.16977,-0.24846 1.66667,0 0.70273,0.35136 0.96394,1.3153 1.66667,1.66666 0.4969,0.24846 1.27383,-0.39283 1.66666,0 0.39284,0.39284 -0.39283,1.27383 0,1.66667 0.39284,0.39284 1.27383,-0.39284 1.66667,0 0.39284,0.39284 -0.24845,1.16976 0,1.66667 3.46813,6.93626 -0.11506,-1.78173 3.33333,1.66666 0.39284,0.39284 -0.39283,1.27383 0,1.66667 0.39284,0.39284 1.27383,-0.39284 1.66667,0 0.39284,0.39284 -0.39284,1.27383 0,1.66667 0.39284,0.39283 1.27383,-0.39284 1.66667,0 0.39283,0.39283 -0.24846,1.16976 0,1.66666 0.82002,1.64005 5.84664,5.02662 6.66666,6.66667 0.24846,0.4969 -0.39283,1.27383 0,1.66667 0.39284,0.39283 1.27383,-0.39284 1.66667,0 0.39284,0.39283 -0.39284,1.27383 0,1.66666 0.39284,0.39284 1.27383,-0.39283 1.66667,0 0.39283,0.39284 0,1.11111 0,1.66667 0.55555,0 1.16976,-0.24845 1.66666,0 0.31904,0.15952 6.50715,6.34763 6.66667,6.66667 0.24845,0.4969 -0.39284,1.27383 0,1.66666 0.39284,0.39284 1.27383,-0.39283 1.66667,0 0.39283,0.39284 -0.24846,1.16977 0,1.66667 3.46813,6.93627 -0.11506,-1.78173 3.33333,1.66667 0.39284,0.39283 -0.24845,1.16976 0,1.66666 3.46813,6.93627 -0.11506,-1.78172 3.33333,1.66667 0.39284,0.39284 -0.24845,1.16976 0,1.66667 3.46814,6.93626 -0.11506,-1.78173 3.33334,1.66666 0.39283,0.39284 -0.39284,1.27383 0,1.66667 4.44444,0 -0.55556,-0.55556 1.66666,1.66667 0.39284,0.39283 1.27383,-0.39284 1.66667,0 0.39284,0.39283 -0.39284,1.27383 0,1.66666 0.39284,0.39284 1.27383,-0.39283 1.66667,0 0.39283,0.39284 -0.39284,1.27383 0,1.66667 4.44444,0 -0.55556,-0.55556 1.66666,1.66667 0.78568,0.78567 2.54766,-0.78568 3.33334,0 0.39283,0.39283 -0.39284,1.27383 0,1.66666 0.0671,0.0671 6.0546,0 6.66666,0 0.55556,0 1.11111,0 1.66667,0 0.55556,0 1.27383,0.39284 1.66667,0 0.39283,-0.39283 -0.39284,-1.27383 0,-1.66666 0.78567,-0.78568 2.54766,0.78567 3.33333,0 0.39284,-0.39284 -0.39284,-1.27383 0,-1.66667 0.78567,-0.78567 2.54766,0.78567 3.33333,0 0.39284,-0.39284 -0.39283,-1.27383 0,-1.66667 0.39284,-0.39283 1.16977,0.24846 1.66667,0 0.70273,-0.35136 0.96394,-1.3153 1.66667,-1.66666 0.4969,-0.24846 1.27383,0.39283 1.66666,0 0,-4.44445 -0.55555,0.55555 1.66667,-1.66667 0.39284,-0.39284 -0.39284,-1.27383 0,-1.66667 0.39284,-0.39283 1.27383,0.39284 1.66667,0 0.39283,-0.39283 -0.24846,-1.16976 0,-1.66666 0.35136,-0.70273 1.3153,-0.96394 1.66666,-1.66667 0.24846,-0.4969 -0.39283,-1.27383 0,-1.66667 0.39284,-0.39283 1.27383,0.39284 1.66667,0 0.78567,-0.78567 -0.78567,-2.54766 0,-3.33333 0.39284,-0.39284 1.27383,0.39284 1.66667,0 0.83333,-0.83333 -0.83334,-4.16667 0,-5 0.39283,-0.39284 1.27383,0.39284 1.66666,0 0.83334,-0.83333 -0.83333,-4.16667 0,-5 0.39284,-0.39284 1.27383,0.39284 1.66667,0 0.0536,-0.0536 0,-4.59579 0,-5 0,-0.87153 0.21912,-6.22843 0,-6.66667 -0.35136,-0.70273 -1.3153,-0.96393 -1.66667,-1.66666 -0.66666,-1.33334 0.66667,-3.66667 0,-5 -5.52763,-5.52764 0.78568,1.57135 -1.66666,-3.33334 -0.35137,-0.70273 -1.31531,-0.96393 -1.66667,-1.66666 -0.4969,-0.99381 0.78567,-2.54766 0,-3.33334 -0.39284,-0.39283 -1.27383,0.39284 -1.66667,0 -0.78567,-0.78567 0.78568,-2.54766 0,-3.33333 -0.39283,-0.39284 -1.27383,0.39284 -1.66666,0 -0.5407,-0.5407 0.54069,-2.79264 0,-3.33333 -0.39284,-0.39284 -1.27383,0.39283 -1.66667,0 -0.55603,-0.55604 0.55603,-2.7773 0,-3.33334 -0.39284,-0.39283 -1.27383,0.39284 -1.66667,0 -0.78567,-0.78567 0.78568,-2.54766 0,-3.33333 -0.39283,-0.39284 -1.27383,0.39284 -1.66666,0 -0.39284,-0.39284 0.39283,-1.27383 0,-1.66667 -0.39284,-0.39283 -1.27383,0.39284 -1.66667,0 -0.39284,-0.39283 0.39284,-1.27383 0,-1.66666 -0.39284,-0.39284 -1.27383,0.39283 -1.66667,0 -0.78567,-0.78568 0.78568,-2.54766 0,-3.33334 -3.44839,-3.44839 0.1348,5.2696 -3.33333,-1.66666 -0.24845,-0.49691 0.39284,-1.27383 0,-1.66667 -0.78567,-0.78567 -2.54766,0.78567 -3.33333,0 -0.39284,-0.39284 0.39283,-1.27383 0,-1.66667 -0.39284,-0.39283 -1.27383,0.39284 -1.66667,0 -0.39284,-0.39283 0.39284,-1.27383 0,-1.66666 -0.78567,-0.78568 -2.54766,0.78567 -3.33333,0 -0.39284,-0.39284 0.39283,-1.27383 0,-1.66667 -0.55925,-0.55925 -2.77409,0.55925 -3.33334,0 -0.39283,-0.39284 0.39284,-1.27383 0,-1.66667 -0.78567,-0.78567 -2.54766,0.78568 -3.33333,0 -0.39284,-0.39283 0.39284,-1.27383 0,-1.66666 -0.78567,-0.78568 -2.54766,0.78567 -3.33333,0 -0.39284,-0.39284 0.39283,-1.27383 0,-1.66667 -0.83334,-0.83333 -4.16667,0.83333 -5,0 -0.39284,-0.39284 0.39283,-1.27383 0,-1.66667 -0.55604,-0.55603 -2.7773,0.55604 -3.33334,0 -0.39283,-0.39283 0.39284,-1.27383 0,-1.66666 -0.39283,-0.39284 -1.11111,0 -1.66666,0 -0.55556,0 -1.11111,0 -1.66667,0 -3.33333,0 -6.66667,0 -10,0 -0.55556,0 -1.11111,0 -1.66667,0 -0.55555,0 -1.16976,-0.24846 -1.66666,0 -0.70273,0.35136 -0.96394,1.3153 -1.66667,1.66666 -1.33333,0.66667 -3.66667,-0.66666 -5,0 -0.70273,0.35137 -0.96394,1.31531 -1.66667,1.66667 -0.9938,0.4969 -2.54766,-0.78567 -3.33333,0 -0.39284,0.39284 0.39284,1.27383 0,1.66667 -0.78567,0.78567 -2.33953,-0.49691 -3.33333,0 C 424.7304,370.1348 433.44839,366.55161 430,370 c -0.39284,0.39284 -1.16976,-0.24845 -1.66667,0 -1.40545,0.70273 -1.92787,2.6306 -3.33333,3.33333 -0.4969,0.24846 -1.27383,-0.39283 -1.66667,0 -0.39283,0.39284 0.39284,1.27383 0,1.66667 -0.39283,0.39284 -1.27383,-0.39284 -1.66666,0 -0.39284,0.39284 0.24845,1.16976 0,1.66667 -3.46814,6.93626 0.11506,-1.78173 -3.33334,1.66666 -0.39283,0.39284 0,1.11111 0,1.66667 -0.55555,0 -1.27383,-0.39284 -1.66666,0 -0.39284,0.39284 0.39283,1.27383 0,1.66667 -0.39284,0.39283 -1.16977,-0.24846 -1.66667,0 -1.03488,0.51744 -2.29845,2.81589 -3.33333,3.33333 -0.49691,0.24845 -1.27383,-0.39284 -1.66667,0 -0.39284,0.39284 0.51582,1.87299 0,1.66667 -3.00772,-1.20309 -5.63797,-6.79691 -8.33333,-5 -2.4893,1.65953 2.7466,5.39967 3.33333,8.33333 0.10895,0.54477 -1.27383,-0.39284 -1.66667,0 -0.39283,0.39284 0.39284,1.27383 0,1.66667 -0.39283,0.39283 -1.16976,-0.24846 -1.66666,0 -0.70273,0.35136 -0.96394,1.3153 -1.66667,1.66666 -0.4969,0.24846 -1.27383,-0.39283 -1.66667,0 -0.39283,0.39284 0,1.11111 0,1.66667 -0.55555,0 -1.27383,-0.39284 -1.66666,0 -0.39284,0.39284 0.39283,1.27383 0,1.66667 -0.78568,0.78567 -2.54766,-0.78568 -3.33334,0 -0.39283,0.39283 0.39284,1.27383 0,1.66666 -0.39283,0.39284 -1.16976,-0.24845 -1.66666,0 -0.70273,0.35137 -0.96394,1.31531 -1.66667,1.66667 -0.4969,0.24845 -1.27383,-0.39284 -1.66667,0 -0.39283,0.39284 0.39284,1.27383 0,1.66667 -0.39283,0.39283 -1.16976,-0.24846 -1.66666,0 -0.70273,0.35136 -0.96394,1.3153 -1.66667,1.66666 -0.4969,0.24846 -1.27383,-0.39283 -1.66667,0 -0.39283,0.39284 0.39284,1.27383 0,1.66667 -0.39283,0.39284 -1.27383,-0.39284 -1.66666,0 -2.22223,2.22222 2.77777,1.66667 -1.66667,1.66667"
       id="path5826"
       inkscape:connector-curvature="0" />
    <path
       style="fill:none;stroke:#000000;stroke-width:1px;stroke-linecap:butt;stroke-linejoin:miter;stroke-opacity:1"
       d="m 460,350 c 5.72123,-1.30605 4.81969,6.57651 8.33333,8.33333 0.49691,0.24846 1.27383,-0.39283 1.66667,0 0.39284,0.39284 -0.39284,1.27383 0,1.66667 0.39284,0.39284 1.27383,-0.39284 1.66667,0 0.39283,0.39284 -0.39284,1.27383 0,1.66667 0.39283,0.39283 1.27383,-0.39284 1.66666,0 0.39284,0.39283 -0.39283,1.27383 0,1.66666 0.39284,0.39284 1.27383,-0.39283 1.66667,0 0.39284,0.39284 -0.39284,1.27383 0,1.66667 0.39284,0.39284 1.27383,-0.39284 1.66667,0 0.39283,0.39284 -0.39284,1.27383 0,1.66667 0.39283,0.39283 1.16976,-0.24846 1.66666,0 2,1 3,4 5,5 0.49691,0.24845 1.27383,-0.39284 1.66667,0 0.39284,0.39283 -0.24845,1.16976 0,1.66666 0.35136,0.70273 1.3153,0.96394 1.66667,1.66667 0.24845,0.4969 -0.39284,1.27383 0,1.66667 0.39283,0.39283 1.27383,-0.39284 1.66666,0 0.39284,0.39283 0,1.11111 0,1.66666 0.55556,0 1.27383,-0.39283 1.66667,0 0.39284,0.39284 -0.39284,1.27383 0,1.66667 0.39284,0.39284 1.27383,-0.39284 1.66667,0 0.39283,0.39284 -0.39284,1.27383 0,1.66667 0.39283,0.39283 1.27383,-0.39284 1.66666,0 0.55604,0.55603 -0.55603,2.7773 0,3.33333 0.39284,0.39284 1.27383,-0.39284 1.66667,0 0.78567,0.78567 -0.78567,2.54766 0,3.33333 4.44444,0 -0.55556,-0.55555 1.66667,1.66667 0.39283,0.39284 1.27383,-0.39284 1.66666,0 0.39284,0.39284 -0.24845,1.16976 0,1.66667 0.82149,1.64297 2.51185,1.69036 3.33334,3.33333 0.24845,0.4969 -0.39284,1.27383 0,1.66667 0.78567,0.78567 2.54766,-0.78568 3.33333,0 0.39284,0.39283 -0.39284,1.27383 0,1.66666 0.39284,0.39284 1.27383,-0.39283 1.66667,0 0.39283,0.39284 -0.39284,1.27383 0,1.66667 4.44444,0 -0.55556,-0.55556 1.66666,1.66667 0.78568,0.78567 2.54766,-0.78568 3.33334,0 0.39283,0.39283 -0.39284,1.27383 0,1.66666 0.39283,0.39284 1.16976,-0.24845 1.66666,0 0.70273,0.35137 0.96394,1.31531 1.66667,1.66667 0.99381,0.4969 2.54766,-0.78567 3.33333,0 0.39284,0.39284 -0.39283,1.27383 0,1.66667 0.83334,0.83333 4.16667,-0.83334 5,0 2.22223,2.22222 -2.77777,1.66666 1.66667,1.66666 0.55556,0 1.11111,0 1.66667,0 0.55555,0 1.27383,-0.39283 1.66666,0 0.39284,0.39284 -0.39283,1.27383 0,1.66667 0.83334,0.83333 4.16667,-0.83333 5,0 0.39284,0.39284 -0.39283,1.27383 0,1.66667 0.83334,0.83333 4.16667,-0.83334 5,0 0.39284,0.39283 -0.39283,1.27383 0,1.66666 0.40106,0.40106 6.26562,-0.40105 6.66667,0 0.39284,0.39284 -0.39284,1.27383 0,1.66667 0.0671,0.0671 6.05461,0 6.66667,0 0.55555,0 1.27383,0.39284 1.66666,0 0.39284,-0.39284 -0.39283,-1.27383 0,-1.66667 0.34073,-0.34072 4.33918,0.33041 5,0 0.70273,-0.35136 0.96394,-1.3153 1.66667,-1.66666 0.99381,-0.49691 2.54766,0.78567 3.33333,0 0.39284,-0.39284 -0.39283,-1.27383 0,-1.66667 0.55383,-0.55383 2.77951,0.55383 3.33334,0 0.39283,-0.39284 -0.39284,-1.27383 0,-1.66667 0.78567,-0.78567 2.54766,0.78568 3.33333,0 0.39284,-0.39283 -0.39284,-1.27383 0,-1.66666 0.39284,-0.39284 1.27383,0.39283 1.66667,0 0.39283,-0.39284 -0.39284,-1.27383 0,-1.66667 0.78567,-0.78567 2.54766,0.78567 3.33333,0 0.39284,-0.39284 -0.39284,-1.27383 0,-1.66667 0.39284,-0.39283 1.27383,0.39284 1.66667,0 0.39283,-0.39283 -0.39284,-1.27383 0,-1.66666 0.39283,-0.39284 1.27383,0.39283 1.66666,0 0.39284,-0.39284 -0.39283,-1.27383 0,-1.66667 0.39284,-0.39284 1.27383,0.39284 1.66667,0 0.39284,-0.39284 -0.39284,-1.27383 0,-1.66667 0.39284,-0.39283 1.27383,0.39284 1.66667,0 0.39283,-0.39283 -0.39284,-1.27383 0,-1.66666 0.39283,-0.39284 1.27383,0.39283 1.66666,0 0.39284,-0.39284 -0.39283,-1.27383 0,-1.66667 0.39284,-0.39284 1.16977,0.24845 1.66667,0 6.93627,-3.46813 -1.78173,0.11506 1.66667,-3.33333 0.39283,-0.39284 1.27383,0.39283 1.66666,0 0.55604,-0.55604 -0.55603,-2.7773 0,-3.33334 0.39284,-0.39283 1.27383,0.39284 1.66667,0 0.0671,-0.0671 0,-6.0546 0,-6.66666 0,-0.87154 0.21912,-6.22843 0,-6.66667 -0.35136,-0.70273 -1.3153,-0.96394 -1.66667,-1.66667 -0.24845,-0.4969 0.39284,-1.27383 0,-1.66666 -0.39283,-0.39284 -1.27383,0.39283 -1.66666,0 -0.55604,-0.55604 0.55603,-2.7773 0,-3.33334 -0.39284,-0.39283 -1.27383,0.39284 -1.66667,0 -0.39284,-0.39283 0.39284,-1.27383 0,-1.66666 -0.39284,-0.39284 -1.27383,0.39283 -1.66667,0 -0.39283,-0.39284 0.39284,-1.27383 0,-1.66667 -0.39283,-0.39284 -1.27383,0.39284 -1.66666,0 -0.39284,-0.39284 0.39283,-1.27383 0,-1.66667 -0.78568,-0.78567 -2.54766,0.78568 -3.33334,0 -0.39283,-0.39283 0.39284,-1.27383 0,-1.66666 -0.39283,-0.39284 -1.16976,0.24845 -1.66666,0 -5.52764,-5.52764 1.57135,0.78567 -3.33334,-1.66667 -0.70273,-0.35136 -0.96393,-1.3153 -1.66666,-1.66667 -0.99381,-0.4969 -2.54766,0.78568 -3.33334,0 -0.39283,-0.39283 0.39284,-1.27383 0,-1.66666 -0.78567,-0.78568 -2.54766,0.78567 -3.33333,0 -0.39284,-0.39284 0.39284,-1.27383 0,-1.66667 -0.40105,-0.40105 -6.26561,0.40105 -6.66667,0 -0.39283,-0.39284 0.39284,-1.27383 0,-1.66667 -0.39283,-0.39283 -1.11111,0 -1.66666,0 -0.55556,0 -1.11111,0 -1.66667,0 -5,0 -10,0 -15,0 -0.55556,0 -1.11111,0 -1.66667,0 -0.55555,0 -1.27383,-0.39283 -1.66666,0 -0.39284,0.39284 0.39283,1.27383 0,1.66667 -0.39284,0.39284 -1.11111,0 -1.66667,0 -0.55556,0 -1.11111,0 -1.66667,0 -6.11111,0 -12.22222,0 -18.33333,0 -6.66667,0 -13.33333,0 -20,0 -0.55556,0 -1.11111,0 -1.66667,0 -0.55555,0 -1.27383,-0.39284 -1.66666,0 -0.39284,0.39284 0.39283,1.27383 0,1.66667 -0.39284,0.39283 -1.11111,0 -1.66667,0 -0.55556,0 -1.11111,0 -1.66667,0 -4.44444,0 -8.88889,0 -13.33333,0 -0.40421,0 -4.9464,-0.0536 -5,0 -0.39284,0.39283 0.39284,1.27383 0,1.66666 -0.39284,0.39284 -1.11111,0 -1.66667,0 -0.55555,0 -1.11111,0 -1.66666,0"
       id="path5828"
       inkscape:connector-curvature="0" />
    <path
       style="fill:none;stroke:#000000;stroke-width:1px;stroke-linecap:butt;stroke-linejoin:miter;stroke-opacity:1"
       d="m 413.33333,246.66667 c 1.33616,-7.02482 5.79961,-0.39981 8.33334,-1.66667 0.70273,-0.35136 0.96393,-1.3153 1.66666,-1.66667 0.49691,-0.24845 1.16977,0.24846 1.66667,0 0.70273,-0.35136 0.96394,-1.3153 1.66667,-1.66666 0.4969,-0.24846 1.16976,0.24845 1.66666,0 0.70273,-0.35137 0.96394,-1.31531 1.66667,-1.66667 0.99381,-0.4969 2.54766,0.78567 3.33333,0 0.39284,-0.39284 -0.39283,-1.27383 0,-1.66667 0.55604,-0.55603 2.7773,0.55604 3.33334,0 0.39283,-0.39283 -0.39284,-1.27383 0,-1.66666 0.78567,-0.78568 2.54766,0.78567 3.33333,0 0.39284,-0.39284 -0.39284,-1.27383 0,-1.66667 0.78567,-0.78567 2.54766,0.78567 3.33333,0 0.39284,-0.39284 -0.39283,-1.27383 0,-1.66667 0.55604,-0.55603 2.7773,0.55604 3.33334,0 0.39283,-0.39283 -0.39284,-1.27383 0,-1.66666 0.78567,-0.78568 2.54766,0.78567 3.33333,0 0.39284,-0.39284 -0.39284,-1.27383 0,-1.66667 0.78567,-0.78567 2.33953,0.4969 3.33333,0 0.70273,-0.35136 0.96394,-1.3153 1.66667,-1.66667 0.99381,-0.4969 2.54766,0.78568 3.33333,0 0.39284,-0.39283 -0.39283,-1.27383 0,-1.66666 0.78568,-0.78568 2.54766,0.78567 3.33334,0 0.39283,-0.39284 -0.39284,-1.27383 0,-1.66667 0.55925,-0.55925 2.77408,0.55925 3.33333,0 0.39284,-0.39284 -0.39284,-1.27383 0,-1.66667 0.78567,-0.78567 2.54766,0.78568 3.33333,0 0.39284,-0.39283 -0.39283,-1.27383 0,-1.66666 0.78568,-0.78568 2.54766,0.78567 3.33334,0 0.39283,-0.39284 -0.39284,-1.27383 0,-1.66667 0.78567,-0.78567 2.33952,0.4969 3.33333,0 0.70273,-0.35136 0.96394,-1.3153 1.66667,-1.66667 0.9938,-0.4969 2.54766,0.78568 3.33333,0 0.39284,-0.39283 -0.39284,-1.27383 0,-1.66666 0.78567,-0.78568 2.54766,0.78567 3.33333,0 0.39284,-0.39284 -0.39283,-1.27383 0,-1.66667 0.78568,-0.78567 2.33953,0.4969 3.33334,0 0.70273,-0.35136 0.96393,-1.3153 1.66666,-1.66667 0.99381,-0.4969 2.54766,0.78568 3.33334,0 0.39283,-0.39283 -0.39284,-1.27383 0,-1.66666 0.78567,-0.78568 2.33952,0.4969 3.33333,0 0.70273,-0.35137 0.96394,-1.31531 1.66667,-1.66667 0.4969,-0.24845 1.16976,0.24845 1.66666,0 0.70273,-0.35136 0.96394,-1.3153 1.66667,-1.66667 0.4969,-0.24845 1.16976,0.24846 1.66667,0 0.70273,-0.35136 0.96393,-1.3153 1.66666,-1.66666 0.49691,-0.24846 1.11111,0 1.66667,0 0.55556,-0.55556 0.96394,-1.31531 1.66667,-1.66667 0.4969,-0.24845 1.27383,0.39284 1.66666,0 0.39284,-0.39284 -0.39283,-1.27383 0,-1.66667 0.55604,-0.55603 2.7773,0.55604 3.33334,0 0.39283,-0.39283 -0.39284,-1.27383 0,-1.66666 0.78567,-0.78568 2.54766,0.78567 3.33333,0 0.39284,-0.39284 -0.39284,-1.27383 0,-1.66667 0.55925,-0.55925 2.77408,0.55925 3.33333,0 0.39284,-0.39284 -0.39283,-1.27383 0,-1.66667 0.78568,-0.78567 2.54766,0.78568 3.33334,0 0.39283,-0.39283 -0.39284,-1.27383 0,-1.66666 0.39283,-0.39284 1.16976,0.24845 1.66666,0 0.70273,-0.35137 0.96394,-1.31531 1.66667,-1.66667 0.4969,-0.24845 1.16976,0.24845 1.66667,0 0.70273,-0.35136 0.96393,-1.3153 1.66666,-1.66667 0.49691,-0.24845 1.27383,0.39284 1.66667,0 0.39284,-0.39283 -0.39284,-1.27383 0,-1.66666 0.55764,-0.55764 2.7757,0.55763 3.33333,0 0.39284,-0.39284 -0.39283,-1.27383 0,-1.66667 0.39284,-0.39284 1.16977,0.24845 1.66667,0 0.70273,-0.35136 0.96394,-1.3153 1.66667,-1.66667 0.4969,-0.24845 1.27383,0.39284 1.66666,0 0.39284,-0.39283 -0.39283,-1.27383 0,-1.66666 0.55544,-0.55544 2.7779,0.55543 3.33334,0 0.39283,-0.39284 -0.39284,-1.27383 0,-1.66667 0.39283,-0.39284 1.16976,0.24845 1.66666,0 5.52764,-5.52764 -1.57135,0.78567 3.33334,-1.66667 0.70273,-0.35136 0.96393,-1.3153 1.66666,-1.66666 0.49691,-0.24846 1.27383,0.39283 1.66667,0 0.39284,-0.39284 -0.39284,-1.27383 0,-1.66667 0.78567,-0.78567 2.33953,0.4969 3.33333,0 0.70273,-0.35136 0.96394,-1.3153 1.66667,-1.66667 0.4969,-0.24845 1.27383,0.39284 1.66667,0 0.39283,-0.39283 -0.39284,-1.27383 0,-1.66666 0.78567,-0.78568 2.33952,0.4969 3.33333,0 0.70273,-0.35137 0.96394,-1.31531 1.66667,-1.66667 0.4969,-0.24845 1.27383,0.39284 1.66666,0 0.39284,-0.39284 -0.39283,-1.27383 0,-1.66667 0.78568,-0.78567 2.54766,0.78568 3.33334,0 0.39283,-0.39283 -0.39284,-1.27383 0,-1.66666 0.39283,-0.39284 1.16976,0.24845 1.66666,0 1.04423,-0.52212 2.28911,-2.81122 3.33334,-3.33334 0.4969,-0.24845 1.27383,0.39284 1.66666,0 0.39284,-0.39283 -0.39283,-1.27383 0,-1.66666 0.39284,-0.39284 1.27383,0.39283 1.66667,0 0.39284,-0.39284 -0.39284,-1.27383 0,-1.66667 0.55925,-0.55925 2.77408,0.55925 3.33333,0 0.39284,-0.39284 -0.39283,-1.27383 0,-1.66667 0.39284,-0.39283 1.27383,0.39284 1.66667,0 0.39284,-0.39283 -0.39284,-1.27383 0,-1.66666 0.55764,-0.55764 2.7757,0.55763 3.33333,0 0.39284,-0.39284 -0.39283,-1.27383 0,-1.66667 0.39284,-0.39284 1.27383,0.39284 1.66667,0 0.39284,-0.39284 -0.39284,-1.27383 0,-1.66667 0.39284,-0.39283 1.27383,0.39284 1.66667,0 0.39283,-0.39283 -0.39284,-1.27383 0,-1.66666 0.78567,-0.78568 2.54766,0.78567 3.33333,0 0.39284,-0.39284 -0.39284,-1.27383 0,-1.66667 0.39284,-0.39284 1.16976,0.24845 1.66667,0 1.40545,-0.70273 1.92787,-2.6306 3.33333,-3.33333 0.4969,-0.24846 1.27383,0.39283 1.66667,0 0.39283,-0.39284 -0.39284,-1.27383 0,-1.66667 0.39283,-0.39284 1.27383,0.39284 1.66666,0 0.39284,-0.39284 -0.24845,-1.16976 0,-1.66667 3.46814,-6.93626 -0.11506,1.78173 3.33334,-1.66666 0.39283,-0.39284 -0.39284,-1.27383 0,-1.66667 0.39283,-0.39284 1.27383,0.39284 1.66666,0 0.39284,-0.39284 -0.39283,-1.27383 0,-1.66667 0.39284,-0.39283 1.27383,0.39284 1.66667,0 0.39284,-0.39283 -0.39284,-1.27383 0,-1.66666 0.39284,-0.39284 1.27383,0.39283 1.66667,0 0.39283,-0.39284 -0.39284,-1.27383 0,-1.66667 0.39283,-0.39284 1.27383,0.39284 1.66666,0 0.39284,-0.39284 -0.39283,-1.27383 0,-1.66667 0.39284,-0.39283 1.27383,0.39284 1.66667,0 0.39284,-0.39283 -0.39284,-1.27383 0,-1.66666 0.39284,-0.39284 1.27383,0.39283 1.66667,0 0.39283,-0.39284 -0.39284,-1.27383 0,-1.66667 0.39283,-0.39284 1.27383,0.39284 1.66666,0 0.39284,-0.39284 0,-1.11111 0,-1.66667 0.55556,0 1.16977,0.24846 1.66667,0 0.89014,-0.44507 4.12256,-4.12256 5,-5 0.55556,-0.55555 1.11111,-1.11111 1.66667,-1.66666 0.55555,-0.55556 1.3153,-0.96394 1.66666,-1.66667 0.24846,-0.4969 -0.39283,-1.27383 0,-1.66667 0.39284,-0.39283 1.27383,0.39284 1.66667,0 0.39284,-0.39283 -0.24845,-1.16976 0,-1.66666 0.35136,-0.70273 1.3153,-0.96394 1.66667,-1.66667 0.24845,-0.4969 -0.39284,-1.27383 0,-1.66667 0.39283,-0.39283 1.27383,0.39284 1.66666,0 0.55925,-0.55925 -0.55925,-2.77408 0,-3.33333 2.22223,-2.22222 1.66667,2.77778 1.66667,-1.66667"
       id="path5830"
       inkscape:connector-curvature="0" />
    <path
       style="fill:none;stroke:#000000;stroke-width:1px;stroke-linecap:butt;stroke-linejoin:miter;stroke-opacity:1"
       d="m 420,251.66667 c 1.11111,2.22222 2.22222,4.44444 3.33333,6.66666 0.55556,0.55556 1.31531,0.96394 1.66667,1.66667 0.24845,0.4969 -0.24845,1.16976 0,1.66667 0.35136,0.70273 1.3153,0.96393 1.66667,1.66666 0.4969,0.99381 -0.78568,2.54766 0,3.33334 0.39283,0.39283 1.27383,-0.39284 1.66666,0 0.83334,0.83333 -0.83333,4.16666 0,5 0.39284,0.39283 1.27383,-0.39284 1.66667,0 0.83333,0.83333 -0.83333,4.16666 0,5 0.39284,0.39283 1.27383,-0.39284 1.66667,0 0.40105,0.40105 -0.40106,6.26561 0,6.66666 0.39283,0.39284 1.27383,-0.39283 1.66666,0 0.39284,0.39284 -0.24845,1.16977 0,1.66667 3.46814,6.93627 -0.11506,-1.78173 3.33334,1.66667 0.39283,0.39283 -0.39284,1.27383 0,1.66666 0.78567,0.78568 2.54766,-0.78567 3.33333,0 0.39284,0.39284 -0.39284,1.27383 0,1.66667 0.39284,0.39284 1.27383,-0.39284 1.66667,0 0.39283,0.39284 -0.39284,1.27383 0,1.66667 0.55925,0.55925 2.77408,-0.55925 3.33333,0 0.39284,0.39283 -0.39284,1.27383 0,1.66666 0.78567,0.78568 2.54766,-0.78567 3.33333,0 0.39284,0.39284 -0.39283,1.27383 0,1.66667 0.39284,0.39284 1.27383,-0.39284 1.66667,0 0.39284,0.39284 -0.39284,1.27383 0,1.66667 0.78567,0.78567 2.33953,-0.49691 3.33333,0 0.70273,0.35136 0.96394,1.3153 1.66667,1.66666 0.99381,0.49691 2.33953,-0.4969 3.33333,0 0.70273,0.35137 0.96394,1.31531 1.66667,1.66667 0.66082,0.33041 4.65927,-0.34073 5,0 0.39284,0.39284 -0.39284,1.27383 0,1.66667 0.45604,0.45603 5.76252,-0.45208 6.66667,0 0.70273,0.35136 0.96393,1.3153 1.66666,1.66666 0.90415,0.45208 6.21063,-0.45603 6.66667,0 0.39284,0.39284 -0.39284,1.27383 0,1.66667 0.51608,0.51608 7.81725,-0.51608 8.33333,0 0.39284,0.39284 -0.39283,1.27383 0,1.66667 0.39284,0.39283 1.11111,0 1.66667,0 4.44444,0 8.88889,0 13.33333,0 0.55556,0 1.11111,0 1.66667,0 0.55556,0 1.27383,0.39283 1.66667,0 0.39283,-0.39284 -0.39284,-1.27383 0,-1.66667 0.39283,-0.39284 1.11111,0 1.66666,0 2.77778,0 5.55556,0 8.33334,0 0.75059,0 4.49277,0.25361 5,0 0.70273,-0.35136 0.96393,-1.3153 1.66666,-1.66667 0.49691,-0.24845 1.11111,0 1.66667,0 2.77778,0 5.55556,0 8.33333,0 0.55556,0 1.11111,0 1.66667,0 0.55556,0 1.16976,0.24846 1.66667,0 0.70273,-0.35136 0.96393,-1.3153 1.66666,-1.66666 0.60273,-0.30136 7.1741,0 8.33334,0 0.55555,0 1.27383,0.39283 1.66666,0 0.39284,-0.39284 -0.39283,-1.27383 0,-1.66667 0.51608,-0.51608 7.81726,0.51608 8.33334,0 0.39283,-0.39284 -0.39284,-1.27383 0,-1.66667 0.40105,-0.40105 6.26561,0.40106 6.66666,0 0.39284,-0.39283 -0.39283,-1.27383 0,-1.66666 0.55544,-0.55544 2.7779,0.55543 3.33334,0 0.39283,-0.39284 -0.39284,-1.27383 0,-1.66667 0.83333,-0.83333 4.16666,0.83333 5,0 0.39283,-0.39284 -0.39284,-1.27383 0,-1.66667 0.78567,-0.78567 2.54766,0.78568 3.33333,0 0.39284,-0.39283 -0.39284,-1.27383 0,-1.66666 0.78567,-0.78568 2.33953,0.4969 3.33333,0 0.70273,-0.35137 0.96394,-1.31531 1.66667,-1.66667 0.99381,-0.4969 2.54766,0.78567 3.33333,0 0.39284,-0.39284 -0.39283,-1.27383 0,-1.66667 0.78568,-0.78567 2.33953,0.49691 3.33334,0 0.70273,-0.35136 0.96393,-1.3153 1.66666,-1.66666 0.49691,-0.24846 1.11111,0 1.66667,0 0.55556,-0.55556 0.96394,-1.31531 1.66667,-1.66667 0.9938,-0.4969 2.54766,0.78567 3.33333,0 0.39284,-0.39284 -0.39284,-1.27383 0,-1.66667 0.78567,-0.78567 2.54766,0.78568 3.33333,0 0.39284,-0.39283 -0.39283,-1.27383 0,-1.66666 0.39284,-0.39284 1.16977,0.24845 1.66667,0 0.70273,-0.35137 0.96394,-1.31531 1.66667,-1.66667 0.4969,-0.24845 1.11111,0 1.66666,0 0.55556,-0.55556 0.96394,-1.3153 1.66667,-1.66667 0.4969,-0.24845 1.27383,0.39284 1.66667,0 0.39283,-0.39283 -0.39284,-1.27383 0,-1.66666 4.44444,0 -0.55556,0.55555 1.66666,-1.66667 0.55383,-0.55383 2.77951,0.55383 3.33334,0 0.39283,-0.39284 -0.39284,-1.27383 0,-1.66667 0.39283,-0.39283 1.27383,0.39284 1.66666,0 0.39284,-0.39283 -0.39283,-1.27383 0,-1.66666 0.39284,-0.39284 1.16977,0.24845 1.66667,0 0.70273,-0.35137 0.96394,-1.31531 1.66667,-1.66667 0.4969,-0.24845 1.27383,0.39284 1.66666,0 0.39284,-0.39284 -0.39283,-1.27383 0,-1.66667 0.39284,-0.39283 1.11111,0 1.66667,0 0,-0.55555 -0.39284,-1.27383 0,-1.66666 0.39284,-0.39284 1.27383,0.39283 1.66667,0 0.39283,-0.39284 -0.39284,-1.27383 0,-1.66667 0.39283,-0.39284 1.27383,0.39284 1.66666,0 0.39284,-0.39284 -0.39283,-1.27383 0,-1.66667 0.39284,-0.39283 1.27383,0.39284 1.66667,0 0.39284,-0.39283 -0.39284,-1.27383 0,-1.66666 0.39284,-0.39284 1.27383,0.39283 1.66667,0 0.39283,-0.39284 -0.39284,-1.27383 0,-1.66667 0.39283,-0.39284 1.27383,0.39284 1.66666,0 0.39284,-0.39284 -0.39283,-1.27383 0,-1.66667 0.39284,-0.39283 1.27383,0.39284 1.66667,0 0.39284,-0.39283 -0.39284,-1.27383 0,-1.66666 0.39284,-0.39284 1.27383,0.39283 1.66667,0 0.39283,-0.39284 -0.39284,-1.27383 0,-1.66667 0.39283,-0.39284 1.27383,0.39284 1.66666,0 0.39284,-0.39284 -0.24845,-1.16976 0,-1.66667 0.35137,-0.70273 1.31531,-0.96393 1.66667,-1.66666 0.24845,-0.49691 -0.39284,-1.27383 0,-1.66667 0.39284,-0.39284 1.27383,0.39284 1.66667,0 0.39283,-0.39284 -0.39284,-1.27383 0,-1.66667 0.39283,-0.39283 1.27383,0.39284 1.66666,0 0.39284,-0.39283 -0.24845,-1.16976 0,-1.66666 0.35137,-0.70273 1.31531,-0.96394 1.66667,-1.66667 0.24845,-0.4969 -0.39284,-1.27383 0,-1.66667 0.39284,-0.39283 1.27383,0.39284 1.66667,0 0.39283,-0.39283 -0.39284,-1.27383 0,-1.66666 0.39283,-0.39284 1.27383,0.39283 1.66666,0 0.39284,-0.39284 -0.24845,-1.16977 0,-1.66667 1.11492,-2.22982 2.21842,-1.10351 3.33334,-3.33333 0.24845,-0.49691 -0.39284,-1.27383 0,-1.66667 0.39283,-0.39284 1.27383,0.39284 1.66666,0 0.39284,-0.39284 -0.24845,-1.16976 0,-1.66667 0.35137,-0.70273 1.31531,-0.96393 1.66667,-1.66666 0.24845,-0.49691 -0.39284,-1.27383 0,-1.66667 0.39284,-0.39284 1.27383,0.39284 1.66667,0 0.39283,-0.39284 -0.39284,-1.27383 0,-1.66667 0.39283,-0.39283 1.27383,0.39284 1.66666,0 0.39284,-0.39283 -0.24845,-1.16976 0,-1.66666 0.35137,-0.70273 1.31531,-0.96394 1.66667,-1.66667 0.24845,-0.4969 -0.39284,-1.27383 0,-1.66667 0.39284,-0.39283 1.27383,0.39284 1.66667,0 0.39283,-0.39283 -0.24846,-1.16976 0,-1.66666 0.35136,-0.70273 1.3153,-0.96394 1.66666,-1.66667 0.24846,-0.4969 -0.39283,-1.27383 0,-1.66667 0.39284,-0.39283 1.27383,0.39284 1.66667,0 0.39284,-0.39283 -0.39284,-1.27383 0,-1.66666 0.39284,-0.39284 1.27383,0.39283 1.66667,0 0.39283,-0.39284 -0.24846,-1.16977 0,-1.66667 0.35136,-0.70273 1.3153,-0.96394 1.66666,-1.66667 0.24846,-0.4969 -0.39283,-1.27383 0,-1.66666 0.39284,-0.39284 1.27383,0.39283 1.66667,0 0.39284,-0.39284 -0.39284,-1.27383 0,-1.66667 0.39284,-0.39284 1.27383,0.39284 1.66667,0 0.39283,-0.39284 -0.39284,-1.27383 0,-1.66667 0.39283,-0.39283 1.27383,0.39284 1.66666,0 0.39284,-0.39283 -0.39283,-1.27383 0,-1.66666 0.39284,-0.39284 1.27383,0.39283 1.66667,0 0.39284,-0.39284 -0.39284,-1.27383 0,-1.66667 0.39284,-0.39284 1.27383,0.39284 1.66667,0 0.39283,-0.39284 -0.39284,-1.27383 0,-1.66667 0.39283,-0.39283 1.27383,0.39284 1.66666,0 0.39284,-0.39283 -0.24845,-1.16976 0,-1.66666 0.35137,-0.70273 1.31531,-0.96394 1.66667,-1.66667 0.24845,-0.4969 -0.39284,-1.27383 0,-1.66667 0.39284,-0.39283 1.27383,0.39284 1.66667,0 0.39283,-0.39283 -0.39284,-1.27383 0,-1.66666 0.39283,-0.39284 1.27383,0.39283 1.66666,0 0.39284,-0.39284 -0.39283,-1.27383 0,-1.66667 0.39284,-0.39284 1.27383,0.39284 1.66667,0 0.39284,-0.39284 -0.39284,-1.27383 0,-1.66667 0.39284,-0.39283 1.27383,0.39284 1.66667,0 0.39283,-0.39283 -0.39284,-1.27383 0,-1.66666 0.39283,-0.39284 1.27383,0.39283 1.66666,0 0.55604,-0.55604 -0.55603,-2.7773 0,-3.33334 0.39284,-0.39283 1.27383,0.39284 1.66667,0 0.39284,-0.39283 -0.39284,-1.27383 0,-1.66666 0.39284,-0.39284 1.27383,0.39283 1.66667,0 0.39283,-0.39284 -0.39284,-1.27383 0,-1.66667 0.39283,-0.39284 1.27383,0.39284 1.66666,0 1.64413,-1.64413 -3.41513,-3.33333 1.66667,-3.33333"
       id="path5832"
       inkscape:connector-curvature="0" />
    <path
       style="fill:none;stroke:#000000;stroke-width:1px;stroke-linecap:butt;stroke-linejoin:miter;stroke-opacity:1"
       d="M 608.33333,111.66667 C 612.85578,110.01568 615.8158,110 620,110 c 0.55556,0 1.16976,0.24845 1.66667,0 0.70273,-0.35136 0.96393,-1.3153 1.66666,-1.66667 0.49691,-0.24845 1.11111,0 1.66667,0 0.55556,0 1.11111,0 1.66667,0 0.40421,0 4.9464,0.0536 5,0 0.39283,-0.39283 -0.39284,-1.27383 0,-1.66666 0.45603,-0.45604 5.76252,0.45207 6.66666,0 0.70273,-0.35137 0.96394,-1.31531 1.66667,-1.66667 1.01204,-0.50602 8.98796,0.50602 10,0 0.70273,-0.35136 0.96394,-1.3153 1.66667,-1.66667 0.4969,-0.24845 1.11111,0 1.66666,0 2.77778,0 5.55556,0 8.33334,0 0.55555,0 1.11111,0 1.66666,0 0.55556,0 1.16977,0.24846 1.66667,0 0.70273,-0.35136 0.96394,-1.3153 1.66667,-1.66666 0.43823,-0.21912 5.79513,0 6.66666,0 0.78583,0 8.2578,0.0755 8.33334,0 0.39283,-0.39284 -0.39284,-1.27383 0,-1.66667 0.51608,-0.516079 7.81725,0.51608 8.33333,0 0.39284,-0.392837 -0.39284,-1.27383 0,-1.666667 0.45604,-0.456036 5.76252,0.452073 6.66667,0 0.70273,-0.351364 0.96393,-1.315302 1.66666,-1.666666 0.90415,-0.452073 6.21063,0.456036 6.66667,0 0.39284,-0.392837 -0.39284,-1.27383 0,-1.666667 0.45604,-0.456037 5.76252,0.452073 6.66667,0 0.70273,-0.351364 0.96393,-1.315302 1.66666,-1.666667 1.15123,-0.575611 7.7483,0.585033 8.33334,0 0.39283,-0.392837 -0.39284,-1.273829 0,-1.666666 0.0536,-0.0536 4.59579,0 5,0 3.33333,0 6.66666,0 10,0 0.55555,0 1.11111,0 1.66666,0 0.55556,0 1.16977,-0.248452 1.66667,0 0.70273,0.351364 0.96394,1.315302 1.66667,1.666666 1.05145,0.525725 7.28188,-0.525724 8.33333,0 0.70273,0.351365 0.96394,1.315303 1.66667,1.666667 1.04753,0.523769 5.61913,-0.523769 6.66666,0 0.70273,0.351364 0.96394,1.315302 1.66667,1.666667 0.43092,0.215458 8.81866,0 10,0 0.55556,0 1.27383,-0.392837 1.66667,0 2.22222,2.222222 -2.77778,1.666666 1.66666,1.666666 2.77778,0 5.55556,0 8.33334,0 0.55555,0 1.27383,-0.392837 1.66666,0 0.39284,0.392837 -0.39283,1.27383 0,1.666667 0.55544,0.55543 2.7779,-0.555435 3.33334,0 0.39283,0.39284 -0.39284,1.27383 0,1.66667 0.39283,0.39283 1.27383,-0.39284 1.66666,0 0.39284,0.39283 0,1.11111 0,1.66666 0,3.88889 0,7.77778 0,11.66667 0,0.61206 0.0671,6.5996 0,6.66667 -0.39283,0.39283 -1.27383,-0.39284 -1.66666,0 -0.78568,0.78567 0.4969,2.33952 0,3.33333 -0.35137,0.70273 -1.31531,0.96394 -1.66667,1.66667 -0.4969,0.9938 0.78567,2.54766 0,3.33333 -0.39284,0.39284 -1.27383,-0.39284 -1.66667,0 -0.55603,0.55603 0.55604,2.7773 0,3.33333 -4.44444,0 0.55556,-0.55555 -1.66666,1.66667 -0.39284,0.39284 -1.27383,-0.39284 -1.66667,0 -0.55603,0.55603 0.55603,2.7773 0,3.33333 -0.39284,0.39284 -1.27383,-0.39283 -1.66667,0 -0.39283,0.39284 0.24846,1.16977 0,1.66667 -0.35136,0.70273 -1.3153,0.96394 -1.66666,1.66667 -0.24846,0.4969 0.39283,1.27383 0,1.66666 -0.39284,0.39284 -1.27383,-0.39283 -1.66667,0 -0.39284,0.39284 0.24845,1.16977 0,1.66667 -0.35136,0.70273 -1.3153,0.96394 -1.66667,1.66667 -0.24845,0.4969 0.39284,1.27383 0,1.66666 -0.39283,0.39284 -1.27383,-0.39283 -1.66666,0 -0.39284,0.39284 0.39283,1.27383 0,1.66667 -0.39284,0.39284 -1.27383,-0.39284 -1.66667,0 -0.39284,0.39284 0.39284,1.27383 0,1.66667 -0.39284,0.39283 -1.27383,-0.39284 -1.66667,0 -0.39283,0.39283 0.39284,1.27383 0,1.66666 -0.39283,0.39284 -1.16976,-0.24845 -1.66666,0 -0.70273,0.35137 -0.96394,1.31531 -1.66667,1.66667 -0.4969,0.24845 -1.27383,-0.39284 -1.66667,0 -0.39283,0.39284 0.39284,1.27383 0,1.66667 -0.39283,0.39283 -1.27383,-0.39284 -1.66666,0 -0.39284,0.39283 0.39283,1.27383 0,1.66666 -0.78568,0.78568 -2.54766,-0.78567 -3.33334,0 -0.39283,0.39284 0.39284,1.27383 0,1.66667 -0.39283,0.39284 -1.27383,-0.39284 -1.66666,0 -0.39284,0.39284 0.39283,1.27383 0,1.66667 -0.39284,0.39283 -1.16977,-0.24846 -1.66667,0 -0.70273,0.35136 -0.96394,1.3153 -1.66667,1.66666 -0.4969,0.24846 -1.27383,-0.39283 -1.66666,0 -0.39284,0.39284 0.39283,1.27383 0,1.66667 -0.55764,0.55764 -2.7757,-0.55764 -3.33334,0 -0.39283,0.39284 0.39284,1.27383 0,1.66667 -0.39283,0.39283 -1.16976,-0.24846 -1.66666,0 -0.70273,0.35136 -0.96394,1.3153 -1.66667,1.66666 -0.4969,0.24846 -1.27383,-0.39283 -1.66667,0 -0.39283,0.39284 0.39284,1.27383 0,1.66667 -0.55543,0.55543 -2.7779,-0.55543 -3.33333,0 -0.39284,0.39284 0.39284,1.27383 0,1.66667 -0.39284,0.39283 -1.16976,-0.24846 -1.66667,0 -0.70273,0.35136 -0.96393,1.3153 -1.66666,1.66666 -0.49691,0.24846 -1.27383,-0.39283 -1.66667,0 -0.39284,0.39284 0.39284,1.27383 0,1.66667 -0.78567,0.78567 -2.54766,-0.78567 -3.33333,0 -0.39284,0.39284 0.39283,1.27383 0,1.66667 -0.55925,0.55925 -2.77409,-0.55925 -3.33334,0 -0.39283,0.39283 0.39284,1.27383 0,1.66666 -0.78567,0.78568 -2.54766,-0.78567 -3.33333,0 -0.39284,0.39284 0.39284,1.27383 0,1.66667 -0.78567,0.78567 -2.54766,-0.78567 -3.33333,0 -0.39284,0.39284 0.39283,1.27383 0,1.66667 -0.55925,0.55925 -2.77409,-0.55925 -3.33334,0 -0.39283,0.39283 0.39284,1.27383 0,1.66666 -0.83333,0.83334 -4.16666,-0.83333 -5,0 -0.39283,0.39284 0.39284,1.27383 0,1.66667 -0.83333,0.83333 -4.16666,-0.83333 -5,0 -0.39283,0.39284 0.39284,1.27383 0,1.66667 -0.51608,0.51608 -7.81725,-0.51608 -8.33333,0 -0.39284,0.39283 0.39284,1.27383 0,1.66666 -0.0671,0.0671 -6.05461,0 -6.66667,0 -3.88889,0 -7.77777,0 -11.66666,0 -0.7506,0 -4.49278,0.25362 -5,0 -0.70273,-0.35136 -0.96394,-1.3153 -1.66667,-1.66666 -0.43824,-0.21912 -5.79513,0 -6.66667,0 -4.44444,0 0.55556,0.55555 -1.66666,-1.66667 -0.45604,-0.45604 -5.76252,0.45207 -6.66667,0 -0.70273,-0.35136 -0.96394,-1.3153 -1.66667,-1.66667 -0.90414,-0.45207 -6.21063,0.45604 -6.66666,0 -0.39284,-0.39283 0.39283,-1.27383 0,-1.66666 -0.83334,-0.83334 -4.16667,0.83333 -5,0 -0.39284,-0.39284 0.39283,-1.27383 0,-1.66667 -0.83334,-0.83333 -4.16667,0.83333 -5,0 -0.39284,-0.39284 0.39283,-1.27383 0,-1.66667 -0.78568,-0.78567 -2.33953,0.49691 -3.33334,0 -0.70273,-0.35136 -0.96393,-1.3153 -1.66666,-1.66666 -0.99381,-0.49691 -2.54766,0.78567 -3.33334,0 -0.39283,-0.39284 0.39284,-1.27383 0,-1.66667 -0.55383,-0.55383 -2.7795,0.55383 -3.33333,0 -0.39284,-0.39284 0.39284,-1.27383 0,-1.66667 -0.78567,-0.78567 -2.54766,0.78568 -3.33333,0 -0.39284,-0.39283 0.39283,-1.27383 0,-1.66666 -0.78568,-0.78568 -2.33953,0.4969 -3.33334,0 -0.70273,-0.35137 -0.96393,-1.31531 -1.66666,-1.66667 -0.49691,-0.24845 -1.16977,0.24845 -1.66667,0 -0.70273,-0.35136 -0.96394,-1.3153 -1.66667,-1.66667 -0.9938,-0.4969 -2.54766,0.78568 -3.33333,0 -0.39284,-0.39283 0.39284,-1.27383 0,-1.66666 -0.78567,-0.78568 -2.54766,0.78567 -3.33333,0 -0.39284,-0.39284 0.39283,-1.27383 0,-1.66667 -0.78568,-0.78567 -2.33953,0.4969 -3.33334,0 -0.70273,-0.35136 -0.96393,-1.3153 -1.66666,-1.66667 -0.99381,-0.4969 -2.54766,0.78568 -3.33334,0 -0.39283,-0.39283 0.39284,-1.27383 0,-1.66666 -0.78567,-0.78568 -2.33952,0.4969 -3.33333,0 -0.70273,-0.35137 -0.96394,-1.31531 -1.66667,-1.66667 -0.4969,-0.24845 -1.16976,0.24845 -1.66666,0 -0.70273,-0.35136 -0.96394,-1.3153 -1.66667,-1.66667 -0.4969,-0.24845 -1.16976,0.24846 -1.66667,0 -0.70273,-0.35136 -0.96393,-1.3153 -1.66666,-1.66666 -0.49691,-0.24846 -1.27383,0.39283 -1.66667,0 -0.39284,-0.39284 0.39284,-1.27383 0,-1.66667 -0.78567,-0.78567 -2.54766,0.78567 -3.33333,0 -0.39284,-0.39284 0.39283,-1.27383 0,-1.66667 -0.78568,-0.78567 -2.54766,0.78568 -3.33334,0 -0.39283,-0.39283 0.39284,-1.27383 0,-1.66666 -0.55543,-0.55544 -2.7779,0.55543 -3.33333,0 -0.39284,-0.39284 0.39284,-1.27383 0,-1.66667 -0.78567,-0.78567 -2.54766,0.78567 -3.33333,0 -0.39284,-0.39284 0.39283,-1.27383 0,-1.66667 -0.39284,-0.39283 -1.27383,0.39284 -1.66667,0 -0.39284,-0.39283 0.39284,-1.27383 0,-1.66666 -0.39284,-0.39284 -1.27383,0.39283 -1.66667,0 -0.39283,-0.39284 0.39284,-1.27383 0,-1.66667 -0.39283,-0.39284 -1.66666,0.55556 -1.66666,0 0,-0.55556 1.27383,0.39284 1.66666,0 0.83334,-0.83333 -0.83333,-4.16667 0,-5 0.39284,-0.39284 1.27383,0.39284 1.66667,0 0.78567,-0.78567 -0.78567,-2.54766 0,-3.33333 0.39284,-0.39284 1.27383,0.39283 1.66667,0 0.39283,-0.39284 -0.39284,-1.27383 0,-1.66667 0.39283,-0.39284 1.27383,0.39284 1.66666,0 0.39284,-0.39284 -0.39283,-1.27383 0,-1.66667 0.39284,-0.39283 1.11111,0 1.66667,0 0,-0.55555 -0.39284,-1.27383 0,-1.66666 0.39284,-0.39284 1.27383,0.39283 1.66667,0 0.39283,-0.39284 -0.39284,-1.27383 0,-1.66667 0.78567,-0.78567 2.54766,0.78567 3.33333,0 0.39284,-0.39284 -0.39284,-1.27383 0,-1.66667 0.78567,-0.78567 2.54766,0.78568 3.33333,0 0.39284,-0.39283 -0.39283,-1.27383 0,-1.66666 0.55544,-0.55544 2.7779,0.55543 3.33334,0 0.39283,-0.39284 -0.39284,-1.27383 0,-1.66667 0.83333,-0.83333 4.16666,0.83333 5,0 0.39283,-0.39284 -0.39284,-1.27383 0,-1.66667 0.78567,-0.78567 2.33952,0.49691 3.33333,0 0.70273,-0.35136 0.96394,-1.3153 1.66667,-1.66666 0.4969,-0.24846 1.16976,0.24845 1.66666,0 0.70273,-0.35137 0.96394,-1.31531 1.66667,-1.66667 0.99381,-0.4969 3.11543,1.08953 3.33333,0 0.54477,-2.72384 -2.38192,-6.90418 0,-8.33333 2.56541,-1.53925 5.39968,2.7466 8.33334,3.33333 0.54476,0.10895 -0.39284,-1.27383 0,-1.66667 0.39283,-0.39283 1.11111,0 1.66666,0 4.44445,0 -0.55555,0.55556 1.66667,-1.66666 0.39284,-0.39284 1.27383,0.39283 1.66667,0 0.39283,-0.39284 -0.39284,-1.27383 0,-1.66667 0.78567,-0.78567 2.54766,0.78567 3.33333,0 0.39284,-0.39284 -0.39284,-1.27383 0,-1.66667 0.39284,-0.39283 1.27383,0.39284 1.66667,0 0.39283,-0.39283 -0.39284,-1.27383 0,-1.66666 0.78567,-0.78568 2.54766,0.78567 3.33333,0 0.39284,-0.39284 -0.39284,-1.27383 0,-1.66667 0.55925,-0.55925 2.77408,0.55925 3.33333,0 0.39284,-0.39284 -0.39283,-1.27383 0,-1.66667 0.78568,-0.78567 2.54766,0.78568 3.33334,0 0.39283,-0.39283 -0.39284,-1.27383 0,-1.66666 0.78567,-0.78568 2.54766,0.78567 3.33333,0 0.39284,-0.39284 -0.39284,-1.27383 0,-1.66667 0.83333,-0.833333 4.16667,0.83333 5,0 0.39284,-0.392837 -0.39284,-1.27383 0,-1.666667 0.39284,-0.392837 1.11111,0 1.66667,0 0.55555,0 1.11111,0 1.66666,0"
       id="path5834"
       inkscape:connector-curvature="0" />
    <path
       style="fill:none;stroke:#000000;stroke-width:1px;stroke-linecap:butt;stroke-linejoin:miter;stroke-opacity:1"
       d="m 138.33333,295 c -2.22222,1.66667 -5,7.22222 -6.66666,5 -1.66667,-2.22222 8.63085,-6.96419 6.66666,-5 -2.77777,2.22222 -5.55555,4.44444 -8.33333,6.66667 0,0.55555 0.39284,1.27383 0,1.66666 -0.78567,0.78568 -2.54766,-0.78567 -3.33333,0 -0.39284,0.39284 0.39283,1.27383 0,1.66667 -0.39284,0.39284 -1.27383,-0.39284 -1.66667,0 -0.39284,0.39284 0.39284,1.27383 0,1.66667 -0.39284,0.39283 -1.27383,-0.39284 -1.66667,0 -0.39283,0.39283 0.39284,1.27383 0,1.66666 -0.39283,0.39284 -1.27383,-0.39283 -1.66666,0 -0.39284,0.39284 0.39283,1.27383 0,1.66667 -0.39284,0.39284 -1.16977,-0.24845 -1.66667,0 -1.84206,0.92103 -1.49128,2.41231 -3.33333,3.33333 -0.49691,0.24846 -1.27383,-0.39283 -1.66667,0 -0.39284,0.39284 0.39284,1.27383 0,1.66667 -0.39284,0.39284 -1.27383,-0.39284 -1.66667,0 -0.39283,0.39284 0.39284,1.27383 0,1.66667 -0.39283,0.39283 -1.11111,0 -1.66666,0 0,0.55555 0.39283,1.27383 0,1.66666 -0.39284,0.39284 -1.27383,-0.39283 -1.66667,0 -0.39284,0.39284 0.39284,1.27383 0,1.66667 -0.39284,0.39284 -1.16976,-0.24845 -1.66667,0 -0.70273,0.35136 -0.96393,1.3153 -1.66666,1.66667 -0.49691,0.24845 -1.27383,-0.39284 -1.66667,0 -0.39284,0.39283 0.39284,1.27383 0,1.66666 -0.39284,0.39284 -1.27383,-0.39283 -1.66667,0 -0.39283,0.39284 0.39284,1.27383 0,1.66667 -0.39283,0.39284 -1.27383,-0.39284 -1.66666,0 -0.39284,0.39284 0.39283,1.27383 0,1.66667 -0.5407,0.54069 -2.792639,-0.5407 -3.333337,0 -0.392837,0.39283 0,1.11111 0,1.66666 -0.555555,0 -1.273829,-0.39283 -1.666666,0 -0.392837,0.39284 0.392837,1.27383 0,1.66667 -0.785675,0.78567 -2.547659,-0.78567 -3.333334,0 -0.392837,0.39284 0.392837,1.27383 0,1.66667 -0.392837,0.39283 -1.169762,-0.24846 -1.666666,0 -0.702729,0.35136 -0.963939,1.3153 -1.666667,1.66666 -0.496904,0.24846 -1.27383,-0.39283 -1.666667,0 -0.392837,0.39284 0.392837,1.27383 0,1.66667 -0.392837,0.39284 -1.273829,-0.39284 -1.666666,0 -0.392837,0.39284 0.392837,1.27383 0,1.66667 -0.392837,0.39283 -1.169763,-0.24846 -1.666667,0 -0.702728,0.35136 -0.963938,1.3153 -1.666667,1.66666 -0.496904,0.24846 -1.273829,-0.39283 -1.666666,0 -0.392837,0.39284 0.392837,1.27383 0,1.66667 -0.392837,0.39284 -1.27383,-0.39284 -1.666667,0 -0.392837,0.39284 0.392837,1.27383 0,1.66667 -0.392837,0.39283 -1.169763,-0.24846 -1.666667,0 -0.702728,0.35136 -0.963938,1.3153 -1.666666,1.66666 -0.496904,0.24846 -1.27383,-0.39283 -1.666667,0 -0.392837,0.39284 0.392837,1.27383 0,1.66667 -0.392837,0.39284 -1.169763,-0.24845 -1.666667,0 -0.702728,0.35136 -0.963938,1.3153 -1.666666,1.66667 -0.496904,0.24845 -1.27383,-0.39284 -1.666667,0 -0.392837,0.39283 0.392837,1.27383 0,1.66666 -0.392837,0.39284 -1.169763,-0.24845 -1.666667,0 -0.702728,0.35137 -0.963938,1.31531 -1.666666,1.66667 -0.496904,0.24845 -1.27383,-0.39284 -1.666667,0 -0.392837,0.39284 0.392837,1.27383 0,1.66667 -0.392837,0.39283 -1.27383,-0.39284 -1.666667,0 -0.392837,0.39283 0.392837,1.27383 0,1.66666 -0.392837,0.39284 -1.169762,-0.24845 -1.666666,0 C 60.963938,353.6847 60.702728,354.64864 60,355 c -0.496904,0.24845 -1.27383,-0.39284 -1.666667,0 -0.392837,0.39284 0.392837,1.27383 0,1.66667 -0.392837,0.39283 -1.273829,-0.39284 -1.666666,0 -0.392837,0.39283 0.392837,1.27383 0,1.66666 -0.785675,0.78568 -2.547659,-0.78567 -3.333334,0 -0.392837,0.39284 0.392837,1.27383 0,1.66667 -0.392837,0.39284 -1.273829,-0.39284 -1.666666,0 -0.392837,0.39284 0.392837,1.27383 0,1.66667 -0.392837,0.39283 -1.27383,-0.39284 -1.666667,0 -0.392837,0.39283 0.392837,1.27383 0,1.66666 -0.392837,0.39284 -1.27383,-0.39283 -1.666667,0 -0.392837,0.39284 0.392837,1.27383 0,1.66667 -0.392837,0.39284 -1.273829,-0.39284 -1.666666,0 -0.392837,0.39284 0.392837,1.27383 0,1.66667 -0.392837,0.39283 -1.27383,-0.39284 -1.666667,0 -0.392837,0.39283 0.392837,1.27383 0,1.66666 -0.392837,0.39284 -1.169763,-0.24845 -1.666667,0 -0.702728,0.35137 -0.963938,1.31531 -1.666666,1.66667 -0.496904,0.24845 -1.27383,-0.39284 -1.666667,0 -0.392837,0.39284 0.392837,1.27383 0,1.66667 -0.392837,0.39283 -1.27383,-0.39284 -1.666667,0 -0.392837,0.39283 0.392837,1.27383 0,1.66666 -0.392837,0.39284 -1.273829,-0.39283 -1.666666,0 -0.392837,0.39284 0.392837,1.27383 0,1.66667 -0.392837,0.39284 -1.111111,0 -1.666667,0 -0.555556,0 -1.111111,0 -1.666667,0 -6.666666,0 -13.333333,0 -20,0"
       id="path5836"
       inkscape:connector-curvature="0" />
    <path
       style="fill:none;stroke:#000000;stroke-width:1px;stroke-linecap:butt;stroke-linejoin:miter;stroke-opacity:1"
       d="m 23.333333,376.66667 c -1.690776,3.96144 -1.666666,6.29898 -1.666666,10 0,0.55555 0.392837,1.27383 0,1.66666 -0.392837,0.39284 -1.27383,-0.39283 -1.666667,0 -0.392837,0.39284 -0.392837,1.27383 0,1.66667 0.392837,0.39284 1.27383,-0.39284 1.666667,0 0.392837,0.39284 -0.392837,1.27383 0,1.66667 0.613636,0.61363 2.719697,-0.61364 3.333333,0 0.392837,0.39283 -0.392837,1.27383 0,1.66666 0.833333,0.83334 4.166667,-0.83333 5,0 2.222222,2.22223 -2.777778,1.66667 1.666667,1.66667 0.555555,0 2.222222,0 1.666666,0 -1.111111,0 -4.444444,0 -3.333333,0 2.222222,0 4.444444,0 6.666667,0 0.555555,0 1.111111,0 1.666666,0 0.555556,0 1.27383,-0.39284 1.666667,0 0.392837,0.39284 -0.392837,1.27383 0,1.66667 0.166667,0.16666 4.833333,0.16666 5,0 0.392837,-0.39284 -0.392837,-1.27383 0,-1.66667 0.392837,-0.39284 1.111111,0 1.666667,0 3.333333,0 6.666666,0 10,0 0.555555,0 1.111111,0 1.666666,0 0.555556,0 1.27383,0.39284 1.666667,0 0.392837,-0.39284 -0.392837,-1.27383 0,-1.66667 0.516079,-0.51608 7.817255,0.51608 8.333333,0 0.392837,-0.39283 -0.392837,-1.27383 0,-1.66666 0.340728,-0.34073 4.339181,0.33041 5,0 C 74.036062,391.3153 74.297272,390.35136 75,390 c 0.993808,-0.4969 2.339525,0.4969 3.333333,0 0.702729,-0.35136 0.963939,-1.3153 1.666667,-1.66667 1.333333,-0.66666 3.666667,0.66667 5,0 0.702728,-0.35136 0.963938,-1.3153 1.666667,-1.66666 0.660819,-0.33041 4.659272,0.34072 5,0 0.392837,-0.39284 -0.392837,-1.27383 0,-1.66667 0.785674,-0.78567 2.339525,0.4969 3.333333,0 0.702728,-0.35136 0.963938,-1.3153 1.666667,-1.66667 0.993808,-0.4969 2.547659,0.78568 3.333333,0 0.39284,-0.39283 -0.392837,-1.27383 0,-1.66666 0.78567,-0.78568 2.54766,0.78567 3.33333,0 0.39284,-0.39284 -0.39283,-1.27383 0,-1.66667 0.39284,-0.39284 1.16977,0.24845 1.66667,0 0.70273,-0.35136 0.96394,-1.3153 1.66667,-1.66667 0.9938,-0.4969 2.54766,0.78568 3.33333,0 0.39284,-0.39283 -0.39284,-1.27383 0,-1.66666 0.39284,-0.39284 1.16976,0.24845 1.66667,0 0.70273,-0.35137 0.96393,-1.31531 1.66666,-1.66667 0.99381,-0.4969 2.54766,0.78567 3.33334,0 0.39283,-0.39284 -0.39284,-1.27383 0,-1.66667 0.55357,-0.55357 2.77976,0.55357 3.33333,0 0.39284,-0.39283 -0.39284,-1.27383 0,-1.66666 0.78567,-0.78568 2.54766,0.78567 3.33333,0 0.39284,-0.39284 -0.39283,-1.27383 0,-1.66667 0.83334,-0.83333 4.16667,0.83333 5,0 0.39284,-0.39284 -0.39283,-1.27383 0,-1.66667 0.55604,-0.55603 2.7773,0.55604 3.33334,0 0.39283,-0.39283 -0.39284,-1.27383 0,-1.66666 0.39283,-0.39284 1.16976,0.24845 1.66666,0 0.70273,-0.35137 0.96394,-1.31531 1.66667,-1.66667 0.4969,-0.24845 1.27383,0.39284 1.66667,0 0.39283,-0.39284 -0.39284,-1.27383 0,-1.66667 0.39283,-0.39283 1.27383,0.39284 1.66666,0 0.39284,-0.39283 -0.39283,-1.27383 0,-1.66666 0.78568,-0.78568 2.54766,0.78567 3.33334,0 0.39283,-0.39284 -0.39284,-1.27383 0,-1.66667 0.39283,-0.39284 1.11111,0 1.66666,0 0,-0.55556 -0.39283,-1.27383 0,-1.66667 0.39284,-0.39283 1.27383,0.39284 1.66667,0 0.39284,-0.39283 -0.39284,-1.27383 0,-1.66666 0.54706,-0.54706 2.78627,0.54706 3.33333,0 0.39284,-0.39284 -0.39283,-1.27383 0,-1.66667 0.39284,-0.39284 1.27383,0.39284 1.66667,0 0.39284,-0.39284 -0.39284,-1.27383 0,-1.66667 0.39284,-0.39283 1.27383,0.39284 1.66667,0 0.39283,-0.39283 -0.39284,-1.27383 0,-1.66666 0.39283,-0.39284 1.27383,0.39283 1.66666,0 0.39284,-0.39284 -0.39283,-1.27383 0,-1.66667 0.39284,-0.39284 1.27383,0.39284 1.66667,0 0.39284,-0.39284 -0.39284,-1.27383 0,-1.66667 0.39284,-0.39283 1.27383,0.39284 1.66667,0 0.39283,-0.39283 -0.39284,-1.27383 0,-1.66666 0.39283,-0.39284 1.27383,0.39283 1.66666,0 0.39284,-0.39284 -0.39283,-1.27383 0,-1.66667 0.39284,-0.39284 1.27383,0.39284 1.66667,0 0.39284,-0.39284 -0.39284,-1.27383 0,-1.66667 0.39284,-0.39283 1.27383,0.39284 1.66667,0 0.55603,-0.55603 -0.55604,-2.7773 0,-3.33333 0.39283,-0.39284 1.27383,0.39284 1.66666,0 0.39284,-0.39284 -0.39283,-1.27383 0,-1.66667 0.39284,-0.39283 1.27383,0.39284 1.66667,0 0.55925,-0.55925 -0.55925,-2.77408 0,-3.33333 0.39284,-0.39284 1.27383,0.39284 1.66667,0 0.78567,-0.78567 -0.78568,-2.54766 0,-3.33333 0.39283,-0.39284 1.27383,0.39283 1.66666,0 0.39284,-0.39284 0,-1.11111 0,-1.66667 0,-0.55556 0,-1.11111 0,-1.66667"
       id="path5838"
       inkscape:connector-curvature="0" />
  </g>
  <g
     id="layer1"
     inkscape:label="Layer 1"
     inkscape:groupmode="layer">
    <path
       style="fill:none;stroke:#000000;stroke-width:1px;stroke-linecap:butt;stroke-linejoin:miter;stroke-opacity:1"
       d="m 145,291.66667 c -100,118.33333 -131.666667,105 -131.666667,105 0,0 -220.000003,225 40,40 259.999997,-185 254.999997,-185 254.999997,-185 z"
       id="path5860"
       inkscape:connector-curvature="0" />
    <path
       style="fill:none;stroke:#000000;stroke-width:1px;stroke-linecap:butt;stroke-linejoin:miter;stroke-opacity:1"
       d="m 183.33333,360 c -111.66666,78.33333 -155,33.33333 -155,33.33333 0,0 -45,-8.33333 -3.33333,35 41.66667,43.33333 163.33333,-20 163.33333,-20 0,0 23.33334,-30 30,-46.66666 C 225,345 183.33333,360 183.33333,360 z"
       id="path5862"
       inkscape:connector-curvature="0" />
    <path
       style="fill:none;stroke:#000000;stroke-width:1px;stroke-linecap:butt;stroke-linejoin:miter;stroke-opacity:1"
       d="m 208.15625,362.02083 c -14.51355,0.92658 -27.21087,8.14823 -38.6875,16.6875 -33.87499,21.21383 -73.0922,39.29538 -114.09375,34.5625 -11.20574,-1.63844 -21.76109,-6.07885 -31.15625,-12.25 -2.74614,0.10862 -6.17179,-1.33393 -8.53125,0.46875 3.01215,10.12594 11.53848,17.76704 19.15625,24.84375 19.14639,13.14212 44.19901,9.57814 65.82171,5.41622 28.58111,-6.09192 56.36012,-16.67653 82.05329,-30.07247 10.10347,-11.18222 17.83238,-24.58086 25.59375,-37.3125 0.15955,-0.82122 2.38012,-3.39526 -0.15625,-2.34375 z"
       id="path5864"
       inkscape:connector-curvature="0" />
    <path
       style="fill:#00ac00;fill-opacity:1;stroke:#004400;stroke-width:5.83333349;stroke-linecap:butt;stroke-miterlimit:4;stroke-opacity:1;stroke-dasharray:none"
       d="m 49.56577,431.69665 c -8.66198,-2.66123 -17.61043,-8.95583 -23.94564,-16.84404 -10.67173,-13.28779 -9.32662,-16.34664 3.93014,-8.93731 16.10201,8.99959 39.30839,11.52672 63.38645,6.90268 23.88883,-4.58771 44.52398,-13.4931 78.39768,-33.83364 15.9659,-9.58723 32.34658,-16.69225 34.20333,-14.83549 0.88957,0.88956 -8.71631,16.52184 -16.82886,27.38669 -7.45597,9.98553 -13.21926,13.36503 -41.95072,24.59923 -27.56635,10.77865 -49.57702,15.82957 -72.42482,16.61977 -10.56718,0.36547 -21.67961,-0.10917 -24.76756,-1.05789 z"
       id="path5874"
       inkscape:connector-curvature="0" />
    <path
       style="fill:#00ac00;fill-opacity:1;stroke:#004400;stroke-width:5.83333349;stroke-linecap:butt;stroke-miterlimit:4;stroke-opacity:1;stroke-dasharray:none"
       d=""
       id="path5876"
       inkscape:connector-curvature="0" />
    <path
       style="fill:#00ac00;fill-opacity:1;stroke:#004400;stroke-width:5.83333349;stroke-linecap:butt;stroke-miterlimit:4;stroke-opacity:1;stroke-dasharray:none"
       d=""
       id="path5878"
       inkscape:connector-curvature="0" />
    <path
       style="fill:#00ac00;fill-opacity:1;stroke:#004400;stroke-width:2.91666675;stroke-linecap:butt;stroke-miterlimit:4;stroke-opacity:1;stroke-dasharray:none"
       d="M 53.06265,441.30483 C 39.16457,438.4114 30.694,433.41981 21.13986,422.49315 4.3160897,403.25254 4.3213897,393.83333 21.15598,393.83333 c 5.38268,0 6.1886,0.24564 10.70817,3.26368 10.54969,7.04482 20.87686,9.62942 38.21918,9.56522 30.09246,-0.11142 62.81206,-12.41709 102.91667,-38.70645 12.45354,-8.16354 19.62896,-10.88163 33.44882,-12.67059 6.3876,-0.82687 7.44405,-0.7712 9.375,0.49401 1.1969,0.78424 2.17618,2.15807 2.17618,3.05295 0,3.73627 -10.48207,21.25955 -24.02766,40.16799 l -6.38781,8.91681 -12.08393,5.39851 c -30.91513,13.81138 -56.8107,22.37401 -81.2506,26.86632 -8.62568,1.58549 -35.45255,2.31697 -41.18735,1.12305 z m 41.60402,-7.08645 c 17.25972,-2.65811 35.61943,-8.03564 58.53475,-17.14472 27.27495,-10.84209 32.65784,-14.80714 44.79073,-32.99297 6.41244,-9.61152 12.5085,-20.59792 12.50754,-22.54125 -1.7e-4,-0.34252 -1.90242,-0.70304 -4.22724,-0.80114 -7.03354,-0.29681 -17.32043,4.27705 -44.52245,19.79598 -28.46095,16.23717 -46.51353,23.93719 -66.8351,28.5074 -7.00289,1.57491 -10.59616,1.8322 -25.24823,1.80782 -16.04701,-0.0267 -17.51601,-0.16153 -24.21574,-2.2225 -3.92283,-1.20674 -10.64561,-3.90398 -14.93952,-5.99387 -8.03991,-3.9131 -11.81237,-4.59264 -14.43945,-2.60098 -1.31719,0.99861 -1.39383,1.58233 -0.59651,4.54335 1.20436,4.47265 9.82096,15.82159 15.56491,20.50058 6.12495,4.98935 15.77333,9.64727 21.7085,10.48014 7.12907,1.00042 31.86017,0.2111 41.91781,-1.33784 z"
       id="path5880"
       inkscape:connector-curvature="0" />
    <rect
       style="fill:#00ac00;fill-opacity:1;stroke:#004400;stroke-width:3.5;stroke-linecap:butt;stroke-miterlimit:4;stroke-opacity:1;stroke-dasharray:none"
       id="rect5882"
       width="73.333336"
       height="61.666668"
       x="238.33333"
       y="445" />
    <rect
       y="451.66666"
       x="429.99997"
       height="61.666668"
       width="73.333336"
       id="rect5886"
       style="fill:#00ac00;fill-opacity:1;stroke:#004400;stroke-width:3.5;stroke-linecap:butt;stroke-miterlimit:4;stroke-opacity:1;stroke-dasharray:none" />
    <rect
       style="fill:#00ac00;fill-opacity:1;stroke:#004400;stroke-width:3.5;stroke-linecap:butt;stroke-miterlimit:4;stroke-opacity:1;stroke-dasharray:none"
       id="rect5890"
       width="73.333336"
       height="61.666668"
       x="393.33331"
       y="461.66666" />
    <rect
       y="454.99997"
       x="206.66664"
       height="61.666668"
       width="73.333336"
       id="rect5892"
       style="fill:#00ac00;fill-opacity:1;stroke:#004400;stroke-width:3.5;stroke-linecap:butt;stroke-miterlimit:4;stroke-opacity:1;stroke-dasharray:none" />
  </g>
  <g
     inkscape:groupmode="layer"
     id="layer3"
     inkscape:label="body">
    <path
       transform="translate(19.999993,95.00001)"
       sodipodi:type="arc"
       style="fill:#006000;fill-opacity:1;stroke:#004400;stroke-width:3.50000000000000000;stroke-miterlimit:4;stroke-opacity:1;stroke-dasharray:none"
       id="path5310"
       sodipodi:cx="343.33334"
       sodipodi:cy="296.66666"
       sodipodi:rx="201.66667"
       sodipodi:ry="96.666664"
       d="m 545.00002,296.66666 a 201.66667,96.666664 0 1 1 -403.33335,0 201.66667,96.666664 0 1 1 403.33335,0 z" />
  </g>
</svg>
